<svg width="30" height="33" viewBox="0 0 30 33" fill="none" xmlns="http://www.w3.org/2000/svg">
<g filter="url(#filter0_di_2551_1940)">
<circle cx="13" cy="11" r="11" fill="white"/>
<path d="M17.7612 8.40269L15.6576 6.24499C15.5822 6.16734 15.4926 6.10572 15.3939 6.06368C15.2952 6.02164 15.1894 6 15.0825 6C14.9757 6 14.8699 6.02164 14.7712 6.06368C14.6725 6.10572 14.5829 6.16734 14.5074 6.24499L8.57537 12.3298C8.41648 12.4928 8.27277 12.7342 8.16865 12.9906C8.06453 13.2482 8 13.5241 8 13.7544V16.2575H10.4403C10.6648 16.2575 10.9327 16.1913 11.1838 16.0845C11.4348 15.9777 11.6697 15.8303 11.8285 15.6673L17.7612 9.5825C17.8369 9.50513 17.8969 9.4132 17.9379 9.31197C17.9789 9.21074 18 9.1022 18 8.99259C18 8.88298 17.9789 8.77444 17.9379 8.67321C17.8969 8.57198 17.8369 8.48005 17.7612 8.40269ZM9.50105 12.9539L13.9982 8.34094L14.6663 9.02624L10.1691 13.6392L9.50105 12.9539ZM10.4403 15.145H9.62686L9.08457 14.5888V13.7544C9.08457 13.7115 9.10247 13.5847 9.17025 13.4178C9.17568 13.4067 10.7792 15.0521 10.7792 15.0521C10.6046 15.1267 10.482 15.145 10.4403 15.145ZM11.2206 14.7178L10.5525 14.0325L15.0497 9.41951L15.7178 10.1048L11.2206 14.7178ZM16.1012 9.71155L14.3811 7.94712L15.0823 7.22788L16.8013 8.99231L16.1012 9.71155Z" fill="black"/>
</g>
<defs>
<filter id="filter0_di_2551_1940" x="-2" y="-4" width="31.9" height="36.9" filterUnits="userSpaceOnUse" color-interpolation-filters="sRGB">
<feFlood flood-opacity="0" result="BackgroundImageFix"/>
<feColorMatrix in="SourceAlpha" type="matrix" values="0 0 0 0 0 0 0 0 0 0 0 0 0 0 0 0 0 0 127 0" result="hardAlpha"/>
<feOffset dx="2" dy="7"/>
<feGaussianBlur stdDeviation="1.95"/>
<feComposite in2="hardAlpha" operator="out"/>
<feColorMatrix type="matrix" values="0 0 0 0 0 0 0 0 0 0 0 0 0 0 0 0 0 0 0.25 0"/>
<feBlend mode="normal" in2="BackgroundImageFix" result="effect1_dropShadow_2551_1940"/>
<feBlend mode="normal" in="SourceGraphic" in2="effect1_dropShadow_2551_1940" result="shape"/>
<feColorMatrix in="SourceAlpha" type="matrix" values="0 0 0 0 0 0 0 0 0 0 0 0 0 0 0 0 0 0 127 0" result="hardAlpha"/>
<feOffset dx="-4" dy="-5"/>
<feGaussianBlur stdDeviation="2"/>
<feComposite in2="hardAlpha" operator="arithmetic" k2="-1" k3="1"/>
<feColorMatrix type="matrix" values="0 0 0 0 0 0 0 0 0 0 0 0 0 0 0 0 0 0 0.25 0"/>
<feBlend mode="normal" in2="shape" result="effect2_innerShadow_2551_1940"/>
</filter>
</defs>
</svg>
