<svg width="22" height="22" viewBox="0 0 22 22" fill="none" xmlns="http://www.w3.org/2000/svg">
<path d="M9.98708 6.00078C10.1097 6.15806 10.2624 6.2893 10.4363 6.38681C10.6102 6.48432 10.8019 6.54614 11 6.56866C11.3843 6.58215 11.7607 6.45797 12.0615 6.21849C13.4686 5.20833 14.5411 6.08099 14.5044 7.49633C14.4829 8.33049 14.5315 9.47495 14.515 10.2926C14.476 12.2011 12.716 13.369 11 13.369C9.49483 13.369 8.6625 12.3661 7.75958 11.3175C6.31445 9.63949 5.01141 8.0037 3.87016 8.0037C3.01812 8.0037 2.62533 8.35066 2.04187 9.40253V5.59149C2.04187 3.94378 3.25049 2.79199 5.15487 2.79199C7.19812 2.79199 8.88204 4.87283 9.98708 6.00078Z" stroke="#0D0D0D" stroke-width="0.5" stroke-linecap="round" stroke-linejoin="round"/>
<path d="M2.04187 9.40262L2.1152 16.7511C2.1152 17.4717 2.40148 18.1629 2.91106 18.6725C3.42064 19.182 4.11178 19.4683 4.83243 19.4683C5.55309 19.4683 6.24422 19.182 6.7538 18.6725C7.26338 18.1629 7.54966 17.4717 7.54966 16.7511L7.5405 11.0618M14.515 10.2927L14.4829 16.7506C14.4829 17.4712 14.7691 18.1623 15.2787 18.6718C15.7882 19.1814 16.4793 19.4676 17.1999 19.4676C17.9205 19.4676 18.6115 19.1814 19.1211 18.6718C19.6306 18.1623 19.9169 17.4712 19.9169 16.7506V5.40962C19.9169 4.63504 19.2362 2.79254 17.3397 2.79254C16.8167 2.75653 16.2924 2.83716 15.8044 3.02858C15.3164 3.22001 14.8771 3.51745 14.5182 3.89941C13.6588 4.69416 12.9287 5.44125 12.0615 6.2195" stroke="#0D0D0D" stroke-width="0.5" stroke-linecap="round" stroke-linejoin="round"/>
</svg>
