<svg width="345" height="320" viewBox="0 0 345 320" fill="none" xmlns="http://www.w3.org/2000/svg">
<ellipse cx="172.325" cy="285.987" rx="172.325" ry="33.8054" fill="#292929"/>
<g clip-path="url(#clip0_4240_1793)">
<path fill-rule="evenodd" clip-rule="evenodd" d="M30.2676 32.2187C38.1411 50.8748 51.5253 63.8371 58.6141 83.2356C62.8178 94.7395 64.57 107.247 64.6763 120.058C64.734 127.016 64.6126 133.979 64.5799 140.937C64.5482 147.722 64.3632 154.465 63.7856 161.207C63.2052 167.985 62.5553 174.682 62.2686 181.501C62.0455 186.815 61.9436 192.996 60.1373 197.843C58.7009 201.697 55.0501 202.262 54.0813 197.587C53.543 194.988 53.6109 192.087 53.6702 189.416C53.7464 185.989 53.9463 182.567 54.0482 179.141C54.4579 165.393 53.9268 151.642 54.2044 137.888C54.4756 124.45 56.2079 111.026 54.2911 97.678C52.7084 86.655 48.6875 77.1893 44.0666 68.1148C39.6207 59.3842 34.782 50.8658 31.7776 40.9349C30.9149 38.0828 30.248 35.1273 29.928 32.0605C30.0679 31.9957 30.1811 32.0484 30.2676 32.2187Z" fill="#C1DEE2"/>
<path fill-rule="evenodd" clip-rule="evenodd" d="M28.1217 69.0248C29.6808 70.1475 30.552 71.7897 31.6058 73.41C32.9162 75.4245 34.4569 77.2432 35.767 79.2592C38.4989 83.4621 40.899 87.9231 43.3892 92.2963C48.1171 100.597 51.7067 109.444 53.4845 119.047C55.3274 128.999 55.8243 139.272 56.5973 149.372C57.4173 160.078 58.2429 170.861 58.3514 181.608C58.4 186.422 58.661 191.534 58.0814 196.314C57.7205 199.291 56.3735 201.827 53.3368 201.803C46.8863 201.752 43.858 194.628 42.5927 188.785C40.7304 180.182 40.3588 171.043 40.6537 162.244C41.0099 151.635 42.8564 141.185 43.6556 130.617C44.502 119.429 44.0238 108.439 40.1665 97.9051C38.2177 92.5818 35.956 87.386 33.9251 82.098C33.0603 79.8465 32.352 77.5338 31.1839 75.4373C29.8845 73.1052 28.2715 70.9883 27.2539 68.4764C27.5431 68.6595 27.8326 68.8421 28.1217 69.0248Z" fill="#89C5CC"/>
<path fill-rule="evenodd" clip-rule="evenodd" d="M102.427 46.7154C102.625 46.5621 102.823 46.4089 103.021 46.2552C102.451 48.6486 101.422 50.5927 100.636 52.7805C99.9285 54.7474 99.5702 56.9732 99.094 59.123C97.9757 64.1724 96.6835 69.1079 95.6273 74.2003C93.5364 84.2772 93.9319 95.1331 95.3031 106.313C96.5982 116.874 98.6463 127.418 99.6223 137.977C100.431 146.733 100.779 155.763 100.007 164.117C99.4829 169.791 97.7639 176.565 93.0803 175.993C90.8753 175.723 89.7251 173.077 89.2617 170.089C88.5173 165.291 88.3615 160.246 88.0713 155.475C87.4238 144.825 87.2948 134.207 87.167 123.667C87.0459 113.722 86.7126 103.58 87.379 93.8861C88.0218 84.5317 90.0321 76.1025 92.9064 68.3251C94.4203 64.2276 95.8627 60.0342 97.5637 56.1289C98.3794 54.2557 99.376 52.6005 100.192 50.7288C100.848 49.2233 101.37 47.6784 102.427 46.7154Z" fill="#C1DEE2"/>
<path fill-rule="evenodd" clip-rule="evenodd" d="M30.1141 99.8543C30.9671 98.4264 32.8446 103.136 33.1304 103.728C33.0095 103.433 32.8882 103.139 32.7658 102.845C34.4589 105.652 36.0077 108.575 36.9707 111.794C37.9237 114.98 38.7422 118.231 39.6363 121.44C41.3141 127.461 43.4784 133.311 44.9985 139.387C46.4796 145.307 46.853 151.127 46.4945 157.25C46.1218 163.615 45.8938 170.077 46.3286 176.438C46.5362 179.476 47.5262 182.305 48.2047 185.23C48.884 188.158 49.4191 191.125 50.2222 194.016C50.4065 193.639 50.43 194.899 50.4296 194.994C50.4246 195.716 50.3234 196.322 50.0904 197.007C49.4915 198.768 48.3711 200.265 46.6662 200.751C43.5852 201.628 40.7246 198.834 39.731 195.883C38.3057 191.649 37.5202 186.969 36.841 182.519C36.2182 178.438 36.0709 174.333 36.2559 170.196C36.6203 162.037 38.101 153.985 38.5015 145.829C38.9374 136.949 37.1731 128.606 35.6959 119.963C34.9844 115.798 34.3044 111.672 32.9197 107.704C32.3591 106.098 31.6282 104.68 30.8618 103.196C30.4257 102.352 29.5439 100.846 30.1141 99.8543Z" fill="#C1DEE2"/>
<path fill-rule="evenodd" clip-rule="evenodd" d="M55.1112 85.9841C54.7578 96.1567 54.1485 106.252 52.7884 116.318C51.4003 126.589 49.806 136.826 48.4704 147.107C47.1702 157.114 45.8075 167.288 45.9891 177.435C46.1229 184.909 44.8801 197.554 53.2048 201.242C61.6361 204.978 63.4446 189.025 63.9983 183.759C65.0592 173.656 64.7157 163.447 64.2008 153.289C63.6722 142.863 62.7898 132.491 61.6962 122.104C60.4815 110.566 59.5284 98.9759 58.7635 87.4052C58.3851 81.682 58.2918 75.9682 58.3962 70.2436C58.495 64.8416 58.2891 59.3838 56.3631 54.2549C56.2622 54.3279 56.1619 54.4008 56.061 54.4735" fill="#69A1AC"/>
<path fill-rule="evenodd" clip-rule="evenodd" d="M98.6376 118.212C97.1214 120.415 95.5929 122.596 94.1609 124.929C91.5988 129.103 89.2819 133.746 88.5849 139.715C87.1263 152.206 88.2965 165.697 88.5789 178.571C88.6367 181.202 88.303 183.753 89.3429 186.257C90.2857 188.527 92.0484 190.258 93.7286 190.248C97.3256 190.228 96.7768 181.445 96.7827 177.579C96.7936 170.803 96.0316 163.958 96.0972 157.188C96.1627 150.482 96.5717 143.756 97.5468 137.387C98.5341 130.94 99.9799 124.749 101.888 118.971C102.153 118.17 104.053 111.974 102.258 113.042" fill="#89C5CC"/>
<path fill-rule="evenodd" clip-rule="evenodd" d="M82.7529 51.5883C80.388 51.5883 80.4025 63.3441 80.3314 64.8541C80.0744 70.3033 80.1348 75.7539 79.9723 81.2041C79.6166 93.0981 79.1796 105.096 77.3879 116.853C76.4233 123.182 75.3049 129.483 74.1019 135.764C72.8956 142.063 71.2762 148.354 70.4825 154.733C69.7205 160.865 70.1511 167.118 70.2556 173.28C70.3601 179.48 70.5479 185.692 71.3625 191.837C71.5634 193.354 71.7991 194.866 72.0513 196.373C72.2614 197.63 72.139 199.188 72.4943 200.382C73.0642 202.294 75.5066 202.92 77.1512 202.621C81.6014 201.811 84.4441 196.239 85.9643 192.168C87.9057 186.969 88.9357 181.331 89.9523 175.852C91.104 169.646 91.779 163.345 92.0956 157.026C92.7393 144.184 91.9132 131.328 90.9907 118.527C90.4776 111.408 89.8848 104.32 88.9779 97.2454C88.0746 90.2006 86.9158 83.1872 86.1612 76.1216C85.613 70.987 85.0729 65.8455 84.7178 60.6912C84.6329 59.4622 84.5614 51.5883 82.7529 51.5883Z" fill="#69A1AC"/>
<path fill-rule="evenodd" clip-rule="evenodd" d="M79.7922 137.041C79.4068 124.698 74.4313 70.4842 73.2993 55.5589C73.0162 51.8231 70.2908 36.2687 69.9373 32.0337C68.9788 33.2307 69.0607 51.8634 69.0712 56.1447C69.0824 60.3797 68.5557 64.5445 68.2846 68.7568C68.0085 73.0548 61.6363 128.563 60.8093 132.693C59.1642 140.909 58.0632 149.34 57.214 157.741C56.3867 165.929 55.1005 174.567 56.2076 182.798C56.462 184.693 56.8646 186.557 57.5202 188.298C58.2285 190.179 58.714 191.918 59.2825 193.886C60.1974 197.056 61.8525 199.839 64.3957 201.147C69.6097 203.831 72.4094 197.756 73.8287 192.468C76.0954 184.022 77.5502 175.438 78.2323 166.568C78.987 156.755 80.1009 146.922 79.7922 137.041Z" fill="#89C5CC"/>
<path d="M103.912 173.36H26.3625C25.3779 173.36 24.5798 174.156 24.5798 175.138V252.468C24.5798 253.449 25.3779 254.245 26.3625 254.245H103.912C104.897 254.245 105.695 253.449 105.695 252.468V175.138C105.695 174.156 104.897 173.36 103.912 173.36Z" fill="white"/>
<path d="M22.797 182.249H17.4488C16.4642 182.249 15.666 183.045 15.666 184.026V280.911C15.666 281.892 16.4642 282.688 17.4488 282.688H22.797C23.7816 282.688 24.5798 281.892 24.5798 280.911V184.026C24.5798 183.045 23.7816 182.249 22.797 182.249Z" fill="#C5CFD6"/>
<path d="M67.3658 182.249H62.0175C61.0329 182.249 60.2348 183.045 60.2348 184.026V280.911C60.2348 281.892 61.0329 282.688 62.0175 282.688H67.3658C68.3503 282.688 69.1485 281.892 69.1485 280.911V184.026C69.1485 183.045 68.3503 182.249 67.3658 182.249Z" fill="#C5CFD6"/>
<path d="M112.826 182.249H107.478C106.493 182.249 105.695 183.045 105.695 184.026V280.911C105.695 281.892 106.493 282.688 107.478 282.688H112.826C113.81 282.688 114.609 281.892 114.609 280.911V184.026C114.609 183.045 113.81 182.249 112.826 182.249Z" fill="#C5CFD6"/>
</g>
<path fill-rule="evenodd" clip-rule="evenodd" d="M256.605 44.7541C260.614 40.053 263.326 34.2917 262.873 27.836C261.567 9.23525 235.654 13.3272 230.613 22.7152C225.573 32.1032 226.172 55.9168 232.686 57.5947C235.284 58.2638 240.819 56.6247 246.451 53.2322L242.916 78.2258H263.792L256.605 44.7541Z" fill="#B28B67"/>
<path fill-rule="evenodd" clip-rule="evenodd" d="M221.365 9.70064C221.797 8.18224 222.96 6.88218 224.527 6.49649C224.907 6.40294 225.299 6.36515 225.69 6.38091C225.831 6.3865 225.87 6.42691 225.936 6.32891C225.984 6.25624 225.985 6.07872 226.005 5.99333C226.068 5.72779 226.145 5.46557 226.242 5.21013C226.569 4.33892 227.12 3.56788 227.785 2.91836C229.027 1.70324 230.706 0.864616 232.45 0.712897C233.405 0.629902 234.352 0.784875 235.255 1.09516C235.722 1.25579 236.175 1.4558 236.616 1.67693C236.749 1.74348 237.18 2.06947 237.313 2.04835C237.461 2.02506 237.757 1.6594 237.876 1.56762C239.356 0.433033 241.184 -0.0130495 243.027 0.000289782C245.108 0.0159472 247.112 0.119833 248.847 1.38724C249.214 1.65558 249.564 1.94937 249.897 2.25869C250.073 2.42154 250.243 2.59049 250.405 2.76647C250.502 2.87264 250.598 2.98121 250.689 3.09268C250.845 3.28191 250.82 3.34407 251.037 3.21204C251.873 2.70505 252.84 2.46794 253.815 2.58764C254.394 2.65876 254.957 2.8324 255.492 3.06095C255.674 3.13875 256.095 3.44909 256.289 3.45212C256.482 3.45509 256.897 3.1674 257.096 3.09428C258.167 2.69923 259.321 2.60185 260.447 2.7844C261.608 2.97276 262.749 3.43568 263.732 4.07538C264.206 4.3831 264.618 4.72404 264.95 5.18159C265.093 5.37915 265.223 5.58812 265.385 5.77129C265.48 5.87854 265.668 5.98859 265.719 6.12433C265.689 6.04305 266.989 5.54211 267.112 5.51009C267.765 5.33948 268.431 5.37407 269.071 5.58458C270.275 5.98043 271.31 6.86814 272.161 7.77829C272.598 8.24577 272.981 8.76252 273.305 9.31306C273.461 9.57677 273.603 9.84802 273.733 10.125C273.796 10.2592 273.838 10.4271 273.921 10.548C274.028 10.7038 274.1 10.7067 274.294 10.7747C275.28 11.1195 276.178 11.7033 276.862 12.4921C277.553 13.2901 278.002 14.2729 278.19 15.3078C278.202 15.3688 278.208 15.6214 278.244 15.6544C278.293 15.6998 278.491 15.6797 278.566 15.6885C278.825 15.7189 279.083 15.7642 279.337 15.8244C279.806 15.9352 280.262 16.0984 280.694 16.3117C282.376 17.1434 283.579 18.7027 284.168 20.4572C284.786 22.2985 284.775 24.408 284.037 26.215C283.917 26.5068 283.775 26.7901 283.609 27.0581C283.506 27.2226 283.473 27.223 283.54 27.3956C283.614 27.5876 283.749 27.7742 283.837 27.9619C284.124 28.5742 284.325 29.2236 284.451 29.8868C284.659 30.9748 284.762 32.1182 284.557 33.2145C284.462 33.7235 284.296 34.2212 284.043 34.6745C283.914 34.9057 283.763 35.125 283.592 35.3278C283.504 35.4331 283.41 35.5337 283.311 35.63C283.255 35.685 283.181 35.7332 283.134 35.7947C283.017 35.9446 282.992 35.8213 283.052 36.0414C283.137 36.3492 283.327 36.6528 283.444 36.9522C283.565 37.2608 283.674 37.5736 283.773 37.8895C283.975 38.5291 284.145 39.1803 284.252 39.8428C284.457 41.1146 284.421 42.4697 283.819 43.6369C283.561 44.1362 283.192 44.5742 282.744 44.9149C282.525 45.0816 282.287 45.2253 282.038 45.3432C281.91 45.404 281.747 45.43 281.688 45.5537C281.626 45.6867 281.719 45.9508 281.74 46.0995C281.925 47.393 282.018 48.7512 281.633 50.0189C281.279 51.1864 280.498 52.2173 279.485 52.8998C277.52 54.2238 274.87 54.1491 272.805 53.0892C272.267 52.8129 271.763 52.4698 271.314 52.0652C270.17 53.6041 267.815 53.5554 266.143 53.1169C264.06 52.5706 262.389 51.1232 261.426 49.2216C260.109 50.8234 257.345 50.3037 256.432 48.5659C256.208 48.1406 256.076 47.6719 256.01 47.1975C255.976 46.9481 255.998 46.6965 255.972 46.4491C255.939 46.1337 255.729 45.8273 255.607 45.5223C255.371 44.9287 255.225 44.3154 255.219 43.6751C255.215 43.3408 255.258 43.015 255.29 42.6834C255.318 42.3848 255.235 42.1067 255.188 41.812C255.722 41.8999 256.373 41.756 256.877 41.6012C257.371 41.4493 257.833 41.0492 258.182 40.6838C258.991 39.8354 259.486 38.7232 259.824 37.6162C260.567 35.1867 260.262 32.2718 257.817 30.9384C256.677 30.3172 253.264 30.3192 251.907 30.6262C250.481 30.949 248.863 34.0948 248.783 34.3905C248.734 34.5735 248.759 34.7999 248.591 34.9219C248.221 35.19 247.611 34.7247 247.338 34.4951C246.868 34.0988 246.532 33.5715 246.241 33.037C245.608 31.8725 245.097 30.6238 244.737 29.349C244.458 28.3662 244.281 27.3528 243.917 26.395C243.555 25.442 242.985 24.5902 242.099 24.0503C241.134 23.463 240.029 23.1537 238.97 22.7846C237.92 22.4189 236.889 21.9718 236.075 21.1957C235.897 21.025 235.723 20.8437 235.579 20.6427C235.465 20.4841 235.353 20.1804 235.18 20.0799C234.91 19.9234 234.518 20.3303 234.285 20.478C233.136 21.2069 232.178 22.2235 231.405 23.3341C230.637 24.4386 230.006 25.5014 229.493 26.7347C229.113 27.6494 228.876 28.8209 228.207 29.5705C227.909 29.9052 225.69 30.1077 224.972 29.8155C224.253 29.5233 223.448 28.7645 223.207 28.2889C222.96 27.8022 222.901 27.2675 223.006 26.7347C223.068 26.4212 223.195 26.1284 223.264 25.8205C223.323 25.5619 223.376 25.3174 223.502 25.0804C223.74 24.6315 224.148 24.3087 224.64 24.1738C224.128 23.7021 223.704 23.1379 223.411 22.5072C223.106 21.8519 222.847 21.055 222.774 20.3358C222.714 19.7516 222.806 19.1464 223.126 18.6444C223.462 18.1177 224.057 17.7742 224.571 17.4457C223.785 16.8312 223.112 16.0838 222.559 15.2564C221.484 13.6473 220.818 11.619 221.365 9.70064Z" fill="#191847"/>
<path fill-rule="evenodd" clip-rule="evenodd" d="M322.072 186.872H222.04C214.353 186.872 208.122 193.099 208.122 200.779V280.743C208.122 288.424 214.353 294.65 222.04 294.65H322.072C329.759 294.65 335.99 288.424 335.99 280.743V200.779C335.99 193.099 329.759 186.872 322.072 186.872ZM308.155 211.209C310.076 211.209 311.634 212.766 311.634 214.686V266.836C311.634 268.756 310.076 270.313 308.155 270.313H235.957C234.036 270.313 232.478 268.756 232.478 266.836V214.686C232.478 212.766 234.036 211.209 235.957 211.209H308.155Z" fill="#C5CFD6"/>
<path fill-rule="evenodd" clip-rule="evenodd" d="M145.919 291.747C157.065 267.098 165.125 245.636 168.36 234.312C173.9 214.923 178.114 197.862 179.179 191.49C181.719 176.296 159.64 175.412 156.722 182.963C152.305 194.391 144.594 231.941 135.329 288.659L145.919 291.747ZM275.198 214.393C264.972 210.355 229.162 197.715 211.891 194.14C206.928 193.112 202.117 192.158 197.595 191.295C184.152 188.731 177.188 212.963 190.135 214.825C222.377 219.461 268.087 224.25 271.999 224.787C277.481 225.54 281.624 216.932 275.198 214.393Z" fill="#B28B67"/>
<path fill-rule="evenodd" clip-rule="evenodd" d="M189.344 184.627L244.656 156.492V150.367H238.078C184.566 163.992 157.222 172.724 156.045 176.562C156.032 176.603 156.021 176.645 156.01 176.686C155.983 176.721 155.957 176.757 155.931 176.793C145.326 191.366 138.975 262.514 136.89 267.841L157.211 270.87C164.985 242.068 189.855 222.003 189.194 187.506C189.373 186.494 189.418 185.534 189.344 184.627Z" fill="#1F28CF"/>
<path fill-rule="evenodd" clip-rule="evenodd" d="M240.06 201.336C245.121 200.323 249.781 199.42 253.769 198.721C279.529 194.206 287.04 180.428 282.599 150.367H235.138C227.385 152.592 187.094 169.476 166.189 178.456C152.353 184.399 156.715 205.824 164.55 211.4C164.593 211.742 164.734 211.974 164.985 212.078C207.133 229.534 240.476 220.375 251.614 223.301L256.766 207.062L240.06 201.336Z" fill="#2B44FF"/>
<path fill-rule="evenodd" clip-rule="evenodd" d="M271.704 211.811C274.465 212.075 276.425 212.489 277.584 213.054C278.994 213.74 280.936 214.977 283.411 216.764C282.613 218.399 275.442 233.087 261.899 260.829C257.553 260.129 255.831 258.471 256.733 255.857C257.636 253.243 258.364 251.06 258.917 249.31L259.781 224.378C259.797 223.898 260.2 223.523 260.68 223.539C260.688 223.539 260.697 223.54 260.705 223.54L264.542 223.781C266.723 222.016 268.162 220.42 268.859 218.992C269.426 217.832 269.739 216.002 269.8 213.501C269.823 212.541 270.62 211.781 271.58 211.804C271.622 211.805 271.663 211.807 271.704 211.811Z" fill="#E4E4E4"/>
<path fill-rule="evenodd" clip-rule="evenodd" d="M150.992 287.177C151.965 289.772 152.451 291.715 152.451 293.003C152.451 294.571 152.19 296.858 151.667 299.865C149.848 299.865 133.494 299.865 102.606 299.865C101.331 295.653 102.067 293.38 104.814 293.044C107.561 292.708 109.843 292.405 111.66 292.134L134.463 281.976C134.902 281.781 135.416 281.978 135.612 282.416C135.615 282.424 135.618 282.431 135.621 282.439L137.087 285.992C139.63 287.177 141.696 287.77 143.286 287.77C144.578 287.77 146.362 287.249 148.638 286.206C149.511 285.806 150.544 286.189 150.944 287.062C150.961 287.1 150.977 287.138 150.992 287.177Z" fill="#E4E4E4"/>
<path fill-rule="evenodd" clip-rule="evenodd" d="M194.165 136.567L169.524 160.586C162.355 163.642 156.48 167.016 151.901 170.709C150.871 171.95 149.75 174.329 154.595 173.264C159.44 172.2 164.585 171.299 165.495 172.873C166.406 174.448 163.723 176.86 165.406 178.921C166.528 180.295 170.301 175.925 176.726 165.812L202.35 150.717L194.165 136.567ZM303.537 139.954L285.36 140.026C296.584 176.23 302.643 195.44 303.537 197.655C305.55 202.639 301.291 210.23 299.469 214.31C305.402 216.962 304.77 207.139 312.253 210.618C319.084 213.793 324.28 219.547 332.172 214.681C333.142 214.083 334.205 211.83 331.637 210.07C325.236 205.685 316.013 198.01 314.767 195.484C313.068 192.039 309.325 173.529 303.537 139.954Z" fill="#B28B67"/>
<path fill-rule="evenodd" clip-rule="evenodd" d="M251.879 63.7384L244.358 62.4493C231.408 94.774 208.799 124.145 176.53 150.563L200.914 180.163C233.179 142.548 253.067 103.74 251.879 63.7384Z" fill="#191847"/>
<path fill-rule="evenodd" clip-rule="evenodd" d="M284.669 158.19H217.69C233.207 120.489 240.966 88.4635 240.966 62.112L261.17 59.104C277.049 84.6215 281.533 116.039 284.669 158.19Z" fill="#DDE3E9"/>
<path fill-rule="evenodd" clip-rule="evenodd" d="M261.598 59.1183C261.595 59.1135 261.593 59.1088 261.59 59.104H260.271C258.693 59.1583 256.289 59.2561 253.06 59.3975L248.178 73.3383C247.662 90.3355 244.646 124.589 239.131 176.1H283.037C282.922 179.657 282.732 183.248 282.467 186.872H315.113C310.23 131.822 292.397 89.233 261.614 59.104L261.598 59.1183Z" fill="#2F3676"/>
<path fill-rule="evenodd" clip-rule="evenodd" d="M280.136 130.579C278.887 152.755 275.758 168.043 270.751 176.442H283.025C283.563 160.487 282.6 145.199 280.136 130.579Z" fill="black" fill-opacity="0.1"/>
<path fill-rule="evenodd" clip-rule="evenodd" d="M273.264 149.498L251.614 139.441V149.498H273.264Z" fill="white" fill-opacity="0.2"/>
<defs>
<clipPath id="clip0_4240_1793">
<rect width="98.9426" height="250.655" fill="white" transform="translate(15.666 32.0337)"/>
</clipPath>
</defs>
</svg>
