<svg width="430" height="60" viewBox="0 0 430 60" fill="none" xmlns="http://www.w3.org/2000/svg">
<path d="M35.7666 26.0627C36.4085 26.0627 37.0173 26.1817 37.5928 26.4197C38.1683 26.6521 38.6774 27.0173 39.1201 27.5154C39.5684 28.0079 39.9198 28.6415 40.1743 29.4163C40.4289 30.1855 40.5562 31.1124 40.5562 32.197V32.2136C40.5562 33.5583 40.3625 34.7094 39.9751 35.6667C39.5877 36.6241 39.0316 37.3601 38.3066 37.8748C37.5872 38.3839 36.7267 38.6384 35.7251 38.6384C34.9891 38.6384 34.325 38.5056 33.7329 38.24C33.1463 37.9688 32.6593 37.5981 32.272 37.1277C31.8901 36.6518 31.6328 36.1095 31.5 35.5007L31.4834 35.4094H33.5835L33.6167 35.4924C33.7218 35.7691 33.8713 36.0126 34.0649 36.2229C34.2642 36.4332 34.5021 36.5964 34.7788 36.7126C35.061 36.8233 35.3765 36.8787 35.7251 36.8787C36.356 36.8787 36.8706 36.6933 37.269 36.3225C37.673 35.9462 37.9746 35.4454 38.1738 34.8201C38.3786 34.1892 38.4948 33.4919 38.5225 32.7283C38.528 32.6453 38.5308 32.565 38.5308 32.4875C38.5308 32.4045 38.5308 32.3243 38.5308 32.2468L38.1572 30.2463C38.1572 29.7926 38.0521 29.3803 37.8418 29.0095C37.6315 28.6388 37.3465 28.3455 36.9868 28.1296C36.6326 27.9138 36.2314 27.8059 35.7832 27.8059C35.3516 27.8059 34.9559 27.9111 34.5962 28.1213C34.2365 28.3316 33.9487 28.6194 33.7329 28.9846C33.5171 29.3443 33.4092 29.7483 33.4092 30.1965V30.2131C33.4092 30.678 33.5116 31.0903 33.7163 31.45C33.9211 31.8041 34.2005 32.0836 34.5547 32.2883C34.9089 32.4931 35.3128 32.5955 35.7666 32.5955C36.2204 32.5955 36.6271 32.4958 36.9868 32.2966C37.3465 32.0974 37.6315 31.8207 37.8418 31.4666C38.0521 31.1124 38.1572 30.7112 38.1572 30.2629V30.2463H38.6553V32.4543H38.3647C38.2209 32.7698 38.0078 33.0631 37.7256 33.3342C37.4434 33.6054 37.0947 33.824 36.6797 33.99C36.2702 34.156 35.7887 34.239 35.2354 34.239C34.4717 34.239 33.7965 34.0675 33.21 33.7244C32.6234 33.3813 32.1613 32.9109 31.8237 32.3132C31.4917 31.7156 31.3257 31.0404 31.3257 30.2878V30.2712C31.3257 29.4578 31.5138 28.7356 31.8901 28.1047C32.272 27.4683 32.7977 26.9703 33.4673 26.6106C34.1424 26.2454 34.9089 26.0627 35.7666 26.0627ZM44.3247 36.7292C43.9484 36.7292 43.633 36.6047 43.3784 36.3557C43.1294 36.1012 43.0049 35.7913 43.0049 35.426C43.0049 35.0553 43.1294 34.7454 43.3784 34.4963C43.633 34.2418 43.9484 34.1145 44.3247 34.1145C44.7065 34.1145 45.022 34.2418 45.271 34.4963C45.52 34.7454 45.6445 35.0553 45.6445 35.426C45.6445 35.7913 45.52 36.1012 45.271 36.3557C45.022 36.6047 44.7065 36.7292 44.3247 36.7292ZM44.3247 30.5701C43.9484 30.5701 43.633 30.4456 43.3784 30.1965C43.1294 29.942 43.0049 29.6321 43.0049 29.2668C43.0049 28.8961 43.1294 28.5862 43.3784 28.3372C43.633 28.0826 43.9484 27.9553 44.3247 27.9553C44.7065 27.9553 45.022 28.0826 45.271 28.3372C45.52 28.5862 45.6445 28.8961 45.6445 29.2668C45.6445 29.6321 45.52 29.942 45.271 30.1965C45.022 30.4456 44.7065 30.5701 44.3247 30.5701ZM53.9038 38.3396V36.0403H48.0435V34.2888C48.3589 33.752 48.6743 33.2125 48.9897 32.6702C49.3107 32.1278 49.6344 31.5883 49.9609 31.0515C50.293 30.5092 50.6222 29.9752 50.9487 29.4495C51.2808 28.9182 51.61 28.3953 51.9365 27.8806C52.2686 27.3604 52.6006 26.8541 52.9326 26.3616H55.9458V34.2722H57.5645V36.0403H55.9458V38.3396H53.9038ZM50.0356 34.322H53.937V28.0715H53.8125C53.569 28.4478 53.3172 28.8352 53.0571 29.2336C52.8026 29.6321 52.5452 30.0388 52.2852 30.4539C52.0251 30.8689 51.7677 31.2867 51.5132 31.7073C51.2586 32.1223 51.0068 32.5401 50.7578 32.9607C50.5088 33.3757 50.2681 33.788 50.0356 34.1975V34.322ZM62.52 38.3396V28.47H62.3706L59.3906 30.5701V28.5613L62.52 26.3616H64.6533V38.3396H62.52Z" fill="#0D0D0D"/>
<rect opacity="0.35" x="377.485" y="26.5" width="24" height="12" rx="3.8" stroke="#0D0D0D"/>
<path opacity="0.4" d="M402.985 30.7811V34.8566C403.789 34.5114 404.313 33.7085 404.313 32.8189C404.313 31.9293 403.789 31.1263 402.985 30.7811Z" fill="#0D0D0D"/>
<rect x="378.985" y="28" width="21" height="9" rx="2.5" fill="#0D0D0D"/>
<path fill-rule="evenodd" clip-rule="evenodd" d="M361.255 29.104C363.742 29.1041 366.134 30.0262 367.937 31.6796C368.073 31.8073 368.29 31.8057 368.423 31.676L369.721 30.4126C369.788 30.3468 369.826 30.2577 369.826 30.165C369.825 30.0724 369.786 29.9837 369.718 29.9187C364.987 25.544 357.523 25.544 352.792 29.9187C352.723 29.9837 352.685 30.0723 352.684 30.165C352.683 30.2577 352.721 30.3468 352.789 30.4126L354.087 31.676C354.22 31.8059 354.437 31.8075 354.573 31.6796C356.376 30.0261 358.768 29.104 361.255 29.104ZM361.252 33.3243C362.609 33.3242 363.918 33.8359 364.924 34.76C365.06 34.8912 365.275 34.8883 365.407 34.7536L366.695 33.4343C366.762 33.3651 366.8 33.2712 366.799 33.1737C366.798 33.0761 366.759 32.9831 366.689 32.9153C363.626 30.0244 358.881 30.0244 355.817 32.9153C355.748 32.9831 355.708 33.0762 355.707 33.1738C355.706 33.2714 355.744 33.3652 355.812 33.4343L357.099 34.7536C357.232 34.8883 357.446 34.8912 357.582 34.76C358.588 33.8365 359.895 33.3248 361.252 33.3243ZM363.776 36.1178C363.778 36.2232 363.741 36.3247 363.674 36.3985L361.497 38.8533C361.433 38.9254 361.346 38.966 361.256 38.966C361.165 38.966 361.078 38.9254 361.014 38.8533L358.837 36.3985C358.77 36.3247 358.733 36.2231 358.735 36.1177C358.737 36.0124 358.778 35.9126 358.848 35.842C360.238 34.5281 362.274 34.5281 363.664 35.842C363.734 35.9127 363.774 36.0125 363.776 36.1178Z" fill="#0D0D0D"/>
<path fill-rule="evenodd" clip-rule="evenodd" d="M345.185 27.682C345.185 27.0489 344.707 26.5358 344.118 26.5358H343.051C342.462 26.5358 341.985 27.0489 341.985 27.682V37.616C341.985 38.249 342.462 38.7622 343.051 38.7622H344.118C344.707 38.7622 345.185 38.249 345.185 37.616V27.682ZM337.751 28.981H338.817C339.406 28.981 339.884 29.5065 339.884 30.1548V37.5884C339.884 38.2367 339.406 38.7622 338.817 38.7622H337.751C337.162 38.7622 336.684 38.2367 336.684 37.5884V30.1548C336.684 29.5065 337.162 28.981 337.751 28.981ZM333.419 31.6301H332.352C331.763 31.6301 331.286 32.1623 331.286 32.8188V37.5735C331.286 38.23 331.763 38.7622 332.352 38.7622H333.419C334.008 38.7622 334.486 38.23 334.486 37.5735V32.8188C334.486 32.1623 334.008 31.6301 333.419 31.6301ZM328.118 34.0754H327.051C326.462 34.0754 325.985 34.6 325.985 35.2471V37.5905C325.985 38.2376 326.462 38.7622 327.051 38.7622H328.118C328.707 38.7622 329.185 38.2376 329.185 37.5905V35.2471C329.185 34.6 328.707 34.0754 328.118 34.0754Z" fill="#0D0D0D"/>
</svg>
