<svg width="38" height="38" viewBox="0 0 38 38" fill="none" xmlns="http://www.w3.org/2000/svg">
<path d="M18.5497 18.5162C17.5248 18.5162 16.5418 18.1091 15.8171 17.3843C15.0924 16.6596 14.6852 15.6766 14.6852 14.6517C14.6852 13.6268 15.0924 12.6438 15.8171 11.9191C16.5418 11.1943 17.5248 10.7872 18.5497 10.7872C19.5747 10.7872 20.5576 11.1943 21.2823 11.9191C22.0071 12.6438 22.4142 13.6268 22.4142 14.6517C22.4142 15.1592 22.3143 15.6617 22.1201 16.1306C21.9259 16.5995 21.6412 17.0255 21.2823 17.3843C20.9235 17.7432 20.4975 18.0278 20.0286 18.2221C19.5597 18.4163 19.0572 18.5162 18.5497 18.5162ZM18.5497 3.83105C15.6799 3.83105 12.9276 4.97108 10.8984 7.00035C8.86909 9.02962 7.72906 11.7819 7.72906 14.6517C7.72906 22.7672 18.5497 34.7472 18.5497 34.7472C18.5497 34.7472 29.3704 22.7672 29.3704 14.6517C29.3704 11.7819 28.2303 9.02962 26.2011 7.00035C24.1718 4.97108 21.4195 3.83105 18.5497 3.83105Z" fill="#0D0D0D"/>
</svg>
