<svg width="21" height="20" viewBox="0 0 21 20" fill="none" xmlns="http://www.w3.org/2000/svg">
<path fill-rule="evenodd" clip-rule="evenodd" d="M7.59334 3.69176C7.71924 3.58409 7.88274 3.53081 8.0479 3.54362C8.21307 3.55643 8.36639 3.6343 8.47418 3.7601L13.4742 9.59343C13.5712 9.7067 13.6246 9.85094 13.6246 10.0001C13.6246 10.1493 13.5712 10.2935 13.4742 10.4068L8.47418 16.2401C8.36461 16.3597 8.2128 16.4321 8.05086 16.4419C7.88891 16.4516 7.72951 16.398 7.60636 16.2924C7.48321 16.1868 7.40596 16.0374 7.39093 15.8759C7.3759 15.7143 7.42429 15.5533 7.52584 15.4268L12.1767 10.0001L7.52584 4.57343C7.41797 4.44774 7.36441 4.28438 7.37691 4.11922C7.38941 3.95406 7.46695 3.80062 7.59251 3.6926" fill="#262626"/>
</svg>
