<svg width="34" height="34" viewBox="0 0 34 34" fill="none" xmlns="http://www.w3.org/2000/svg">
<path d="M29.0563 9L25.1396 20.75H10.3402L8.3819 9H29.0563Z" fill="#F5F5F5" stroke="#F5F5F5"/>
<path d="M4.25 4.25H7.08333L7.79167 8.5M7.79167 8.5L9.91667 21.25H25.5L29.75 8.5H7.79167Z" fill="#F5F5F5"/>
<path d="M4.25 4.25H7.08333L7.79167 8.5M7.79167 8.5L9.91667 21.25H25.5L29.75 8.5H7.79167Z" stroke="#F5F5F5" stroke-width="2" stroke-linecap="round" stroke-linejoin="round"/>
<path d="M11.3333 29.7501C12.1157 29.7501 12.75 29.1158 12.75 28.3334C12.75 27.551 12.1157 26.9167 11.3333 26.9167C10.5509 26.9167 9.91667 27.551 9.91667 28.3334C9.91667 29.1158 10.5509 29.7501 11.3333 29.7501Z" fill="#F5F5F5" stroke="#F5F5F5" stroke-width="2" stroke-linecap="round" stroke-linejoin="round"/>
<path d="M24.0833 29.7501C24.8657 29.7501 25.5 29.1158 25.5 28.3334C25.5 27.551 24.8657 26.9167 24.0833 26.9167C23.3009 26.9167 22.6667 27.551 22.6667 28.3334C22.6667 29.1158 23.3009 29.7501 24.0833 29.7501Z" fill="#F5F5F5" stroke="#F5F5F5" stroke-width="2" stroke-linecap="round" stroke-linejoin="round"/>
</svg>
