<svg width="28" height="28" viewBox="0 0 28 28" fill="none" xmlns="http://www.w3.org/2000/svg">
<path d="M3.5 6.12505C3.01875 6.12505 2.625 6.5188 2.625 7.00005C2.625 7.4813 3.01875 7.87505 3.5 7.87505H5.44162L7.7385 17.0625C7.93275 17.8413 8.631 18.375 9.43338 18.375H20.3438C21.133 18.375 21.8032 17.8518 22.0115 17.0897L24.2812 8.75005H22.449L20.3438 16.625H9.43338L7.1365 7.43755C7.04229 7.06047 6.82401 6.72602 6.51677 6.48797C6.20953 6.24992 5.83116 6.1221 5.4425 6.12505H3.5ZM19.25 18.375C17.8106 18.375 16.625 19.5607 16.625 21C16.625 22.4394 17.8106 23.625 19.25 23.625C20.6894 23.625 21.875 22.4394 21.875 21C21.875 19.5607 20.6894 18.375 19.25 18.375ZM11.375 18.375C9.93563 18.375 8.75 19.5607 8.75 21C8.75 22.4394 9.93563 23.625 11.375 23.625C12.8144 23.625 14 22.4394 14 21C14 19.5607 12.8144 18.375 11.375 18.375ZM14 6.12505V8.75005H11.375V10.5001H14V13.1251H15.75V10.5001H18.375V8.75005H15.75V6.12505H14ZM11.375 20.125C11.8676 20.125 12.25 20.5083 12.25 21C12.25 21.4918 11.8667 21.875 11.375 21.875C10.8833 21.875 10.5 21.4918 10.5 21C10.5 20.5083 10.8833 20.125 11.375 20.125ZM19.25 20.125C19.7426 20.125 20.125 20.5083 20.125 21C20.125 21.4918 19.7418 21.875 19.25 21.875C18.7582 21.875 18.375 21.4918 18.375 21C18.375 20.5083 18.7582 20.125 19.25 20.125Z" fill="#262626"/>
</svg>
