<svg width="25" height="25" viewBox="0 0 25 25" fill="none" xmlns="http://www.w3.org/2000/svg">
<path d="M4.51389 0C3.31673 0 2.16861 0.475569 1.32209 1.32209C0.475569 2.16861 0 3.31673 0 4.51389V20.4861C0 21.6833 0.475569 22.8314 1.32209 23.6779C2.16861 24.5244 3.31673 25 4.51389 25H20.4861C21.6833 25 22.8314 24.5244 23.6779 23.6779C24.5244 22.8314 25 21.6833 25 20.4861V4.51389C25 3.31673 24.5244 2.16861 23.6779 1.32209C22.8314 0.475569 21.6833 0 20.4861 0H4.51389ZM19.8333 8.72222L10.4528 18.0931C10.2575 18.2881 9.99271 18.3977 9.71667 18.3977C9.44062 18.3977 9.17587 18.2881 8.98055 18.0931L5.16667 14.2778C4.98267 14.0803 4.8825 13.8191 4.88726 13.5493C4.89202 13.2794 5.00134 13.0219 5.19219 12.8311C5.38304 12.6402 5.64052 12.5309 5.91039 12.5261C6.18025 12.5214 6.44142 12.6216 6.63889 12.8056L9.71805 15.8833L18.3611 7.24861C18.458 7.15194 18.5729 7.0753 18.6994 7.02305C18.8258 6.97081 18.9614 6.94398 19.0982 6.94411C19.235 6.94424 19.3705 6.97132 19.4969 7.0238C19.6233 7.07629 19.7381 7.15315 19.8347 7.25C19.9314 7.34685 20.008 7.46179 20.0603 7.58826C20.1125 7.71473 20.1394 7.85026 20.1392 7.98709C20.1391 8.12393 20.112 8.2594 20.0595 8.38577C20.007 8.51215 19.9302 8.62694 19.8333 8.72361" fill="#178B2E"/>
</svg>
