<svg width="27" height="28" viewBox="0 0 27 28" fill="none" xmlns="http://www.w3.org/2000/svg">
<path d="M17.8774 3.92899C18.6323 3.17397 19.6562 2.74974 20.7238 2.74963C21.7915 2.74953 22.8154 3.17355 23.5705 3.92842C24.3255 4.6833 24.7497 5.70718 24.7498 6.77484C24.7499 7.8425 24.3259 8.86647 23.571 9.62149L22.5675 10.6261L16.875 4.93249L17.8774 3.92899ZM15.6825 6.12611L4.43253 17.375C3.97526 17.8318 3.65393 18.4067 3.50441 19.0355L2.27253 24.2127C2.23918 24.353 2.24231 24.4994 2.28162 24.6381C2.32093 24.7768 2.39511 24.9031 2.49709 25.0049C2.59907 25.1068 2.72545 25.1808 2.86418 25.22C3.0029 25.2592 3.14934 25.2621 3.28953 25.2286L8.46566 23.9956C9.09487 23.8463 9.67017 23.5249 10.1273 23.0675L21.375 11.8186L15.6825 6.12611Z" fill="#178B2E"/>
</svg>
