<svg width="14" height="14" viewBox="0 0 14 14" fill="none" xmlns="http://www.w3.org/2000/svg">
<path d="M9.26979 1.77802C9.66121 1.38653 10.1921 1.16656 10.7457 1.1665C11.2993 1.16645 11.8303 1.38631 12.2218 1.77773C12.6132 2.16914 12.8332 2.70005 12.8333 3.25365C12.8333 3.80725 12.6135 4.33819 12.222 4.72969L11.7017 5.2506L8.75004 2.29835L9.26979 1.77802ZM8.13171 2.91727L2.29838 8.75002C2.06128 8.98688 1.89466 9.28497 1.81713 9.61102L1.17838 12.2955C1.16108 12.3682 1.1627 12.4442 1.18309 12.5161C1.20347 12.588 1.24194 12.6535 1.29482 12.7063C1.3477 12.7591 1.41322 12.7975 1.48516 12.8178C1.55709 12.8381 1.63302 12.8396 1.70571 12.8223L4.38963 12.1829C4.71589 12.1055 5.01419 11.9389 5.25121 11.7017L11.0834 5.86894L8.13171 2.91727Z" fill="#262626"/>
</svg>
