<svg width="24" height="24" viewBox="0 0 24 24" fill="none" xmlns="http://www.w3.org/2000/svg">
<path d="M18 4H5.99999C4.89499 4 3.97399 4.91 4.24699 5.98C4.53775 7.11384 5.07317 8.17029 5.81567 9.07518C6.55817 9.98007 7.48975 10.7115 8.54499 11.218C9.36799 11.612 9.99999 12.386 9.99999 13.298V19.382C10.0001 19.5524 10.0437 19.7199 10.1267 19.8687C10.2098 20.0175 10.3294 20.1426 10.4744 20.2322C10.6193 20.3218 10.7848 20.3728 10.955 20.3805C11.1252 20.3881 11.2946 20.3522 11.447 20.276L13.447 19.276C13.6131 19.193 13.7528 19.0654 13.8504 18.9075C13.9481 18.7496 13.9999 18.5677 14 18.382V13.298C14 12.386 14.632 11.612 15.454 11.218C16.5096 10.7117 17.4416 9.9804 18.1844 9.0755C18.9273 8.1706 19.463 7.11403 19.754 5.98C20.025 4.91 19.103 4 18 4Z" stroke="#808080" stroke-width="2"/>
</svg>
