<svg width="44" height="44" viewBox="0 0 44 44" fill="none" xmlns="http://www.w3.org/2000/svg">
<rect width="44" height="44" rx="12" fill="#0F5D1F"/>
<path fill-rule="evenodd" clip-rule="evenodd" d="M22.0001 10.3542C22.2156 10.3542 22.4222 10.4399 22.5746 10.5922C22.727 10.7446 22.8126 10.9513 22.8126 11.1667V12.5556C25.0377 12.747 27.1238 13.7179 28.7031 15.2971C30.2823 16.8763 31.2532 18.9624 31.4446 21.1876H32.8334C33.0489 21.1876 33.2556 21.2732 33.4079 21.4256C33.5603 21.5779 33.6459 21.7846 33.6459 22.0001C33.6459 22.2156 33.5603 22.4222 33.4079 22.5746C33.2556 22.727 33.0489 22.8126 32.8334 22.8126H31.4446C31.2532 25.0377 30.2823 27.1238 28.7031 28.7031C27.1238 30.2823 25.0377 31.2532 22.8126 31.4446V32.8334C22.8126 33.0489 22.727 33.2556 22.5746 33.4079C22.4222 33.5603 22.2156 33.6459 22.0001 33.6459C21.7846 33.6459 21.5779 33.5603 21.4256 33.4079C21.2732 33.2556 21.1876 33.0489 21.1876 32.8334V31.4446C18.9624 31.2532 16.8763 30.2823 15.2971 28.7031C13.7179 27.1238 12.747 25.0377 12.5556 22.8126H11.1667C10.9513 22.8126 10.7446 22.727 10.5922 22.5746C10.4399 22.4222 10.3542 22.2156 10.3542 22.0001C10.3542 21.7846 10.4399 21.5779 10.5922 21.4256C10.7446 21.2732 10.9513 21.1876 11.1667 21.1876H12.5556C12.747 18.9624 13.7179 16.8763 15.2971 15.2971C16.8763 13.7179 18.9624 12.747 21.1876 12.5556V11.1667C21.1876 10.9513 21.2732 10.7446 21.4256 10.5922C21.5779 10.4399 21.7846 10.3542 22.0001 10.3542ZM22.0001 14.1459C20.9687 14.1459 19.9473 14.3491 18.9944 14.7438C18.0415 15.1385 17.1757 15.717 16.4463 16.4463C15.717 17.1757 15.1385 18.0415 14.7438 18.9944C14.3491 19.9473 14.1459 20.9687 14.1459 22.0001C14.1459 23.0315 14.3491 24.0528 14.7438 25.0057C15.1385 25.9587 15.717 26.8245 16.4463 27.5538C17.1757 28.2831 18.0415 28.8617 18.9944 29.2564C19.9473 29.6511 20.9687 29.8542 22.0001 29.8542C24.0831 29.8542 26.0809 29.0268 27.5538 27.5538C29.0268 26.0809 29.8542 24.0831 29.8542 22.0001C29.8542 19.917 29.0268 17.9193 27.5538 16.4463C26.0809 14.9734 24.0831 14.1459 22.0001 14.1459ZM22.0001 19.5626C21.3536 19.5626 20.7336 19.8194 20.2765 20.2765C19.8194 20.7336 19.5626 21.3536 19.5626 22.0001C19.5626 22.6465 19.8194 23.2665 20.2765 23.7237C20.7336 24.1808 21.3536 24.4376 22.0001 24.4376C22.6465 24.4376 23.2665 24.1808 23.7237 23.7237C24.1808 23.2665 24.4376 22.6465 24.4376 22.0001C24.4376 21.3536 24.1808 20.7336 23.7237 20.2765C23.2665 19.8194 22.6465 19.5626 22.0001 19.5626ZM17.9376 22.0001C17.9376 20.9226 18.3656 19.8893 19.1275 19.1275C19.8893 18.3656 20.9226 17.9376 22.0001 17.9376C23.0775 17.9376 24.1108 18.3656 24.8727 19.1275C25.6346 19.8893 26.0626 20.9226 26.0626 22.0001C26.0626 23.0775 25.6346 24.1108 24.8727 24.8727C24.1108 25.6346 23.0775 26.0626 22.0001 26.0626C20.9226 26.0626 19.8893 25.6346 19.1275 24.8727C18.3656 24.1108 17.9376 23.0775 17.9376 22.0001Z" fill="#F5F5F5"/>
</svg>
