<svg width="34" height="34" viewBox="0 0 34 34" fill="none" xmlns="http://www.w3.org/2000/svg">
<path d="M9.775 5.1001C8.53511 5.1001 7.34601 5.59264 6.46927 6.46937C5.59254 7.34611 5.1 8.53521 5.1 9.7751V24.2251C5.1 25.465 5.59254 26.6541 6.46927 27.5308C7.34601 28.4076 8.53511 28.9001 9.775 28.9001H16.32C15.649 27.5839 15.2995 26.1275 15.3 24.6501C15.3 22.3891 16.1024 20.3151 17.4369 18.7001H16.15C15.9246 18.7001 15.7084 18.6105 15.549 18.4511C15.3896 18.2917 15.3 18.0755 15.3 17.8501C15.3 17.6247 15.3896 17.4085 15.549 17.2491C15.7084 17.0897 15.9246 17.0001 16.15 17.0001H19.2729C20.7944 15.9291 22.6491 15.3001 24.65 15.3001C26.18 15.3001 27.625 15.6673 28.9 16.3201V9.7751C28.9 8.53521 28.4075 7.34611 27.5307 6.46937C26.654 5.59264 25.4649 5.1001 24.225 5.1001H9.775ZM12.75 12.3251C12.75 12.6632 12.6157 12.9876 12.3766 13.2267C12.1375 13.4658 11.8131 13.6001 11.475 13.6001C11.1368 13.6001 10.8125 13.4658 10.5734 13.2267C10.3343 12.9876 10.2 12.6632 10.2 12.3251C10.2 11.9869 10.3343 11.6626 10.5734 11.4235C10.8125 11.1844 11.1368 11.0501 11.475 11.0501C11.8131 11.0501 12.1375 11.1844 12.3766 11.4235C12.6157 11.6626 12.75 11.9869 12.75 12.3251ZM11.475 16.1501C11.8131 16.1501 12.1375 16.2844 12.3766 16.5235C12.6157 16.7626 12.75 17.0869 12.75 17.4251C12.75 17.7632 12.6157 18.0875 12.3766 18.3267C12.1375 18.5658 11.8131 18.7001 11.475 18.7001C11.1368 18.7001 10.8125 18.5658 10.5734 18.3267C10.3343 18.0875 10.2 17.7632 10.2 17.4251C10.2 17.0869 10.3343 16.7626 10.5734 16.5235C10.8125 16.2844 11.1368 16.1501 11.475 16.1501ZM12.75 22.5251C12.75 22.8632 12.6157 23.1875 12.3766 23.4267C12.1375 23.6658 11.8131 23.8001 11.475 23.8001C11.1368 23.8001 10.8125 23.6658 10.5734 23.4267C10.3343 23.1875 10.2 22.8632 10.2 22.5251C10.2 22.1869 10.3343 21.8626 10.5734 21.6235C10.8125 21.3844 11.1368 21.2501 11.475 21.2501C11.8131 21.2501 12.1375 21.3844 12.3766 21.6235C12.6157 21.8626 12.75 22.1869 12.75 22.5251ZM16.15 13.6001C15.9246 13.6001 15.7084 13.5105 15.549 13.3511C15.3896 13.1917 15.3 12.9755 15.3 12.7501C15.3 12.5247 15.3896 12.3085 15.549 12.1491C15.7084 11.9897 15.9246 11.9001 16.15 11.9001H22.95C23.1754 11.9001 23.3916 11.9897 23.551 12.1491C23.7104 12.3085 23.8 12.5247 23.8 12.7501C23.8 12.9755 23.7104 13.1917 23.551 13.3511C23.3916 13.5105 23.1754 13.6001 22.95 13.6001H16.15ZM24.65 32.3001C26.6789 32.3001 28.6247 31.4941 30.0594 30.0595C31.494 28.6248 32.3 26.679 32.3 24.6501C32.3 22.6212 31.494 20.6754 30.0594 19.2407C28.6247 17.8061 26.6789 17.0001 24.65 17.0001C22.6211 17.0001 20.6753 17.8061 19.2406 19.2407C17.806 20.6754 17 22.6212 17 24.6501C17 26.679 17.806 28.6248 19.2406 30.0595C20.6753 31.4941 22.6211 32.3001 24.65 32.3001ZM23.8 21.2501C23.8 21.0247 23.8896 20.8085 24.049 20.6491C24.2084 20.4897 24.4246 20.4001 24.65 20.4001C24.8754 20.4001 25.0916 20.4897 25.251 20.6491C25.4104 20.8085 25.5 21.0247 25.5 21.2501V23.8001H27.2C27.4254 23.8001 27.6416 23.8897 27.801 24.0491C27.9604 24.2085 28.05 24.4247 28.05 24.6501C28.05 24.8755 27.9604 25.0917 27.801 25.2511C27.6416 25.4105 27.4254 25.5001 27.2 25.5001H24.65C24.4246 25.5001 24.2084 25.4105 24.049 25.2511C23.8896 25.0917 23.8 24.8755 23.8 24.6501V21.2501Z" fill="#F5F5F5"/>
</svg>
