<svg width="34" height="34" viewBox="0 0 34 34" fill="none" xmlns="http://www.w3.org/2000/svg">
<path d="M9.775 5.1001H24.225C25.4649 5.1001 26.654 5.59264 27.5307 6.46937C28.4075 7.34611 28.9 8.53521 28.9 9.7751V16.3201C28.3565 16.0424 27.7871 15.8187 27.2 15.652V9.7751C27.2 8.98608 26.8866 8.22938 26.3286 7.67146C25.7707 7.11353 25.014 6.8001 24.225 6.8001H9.775C8.98598 6.8001 8.22928 7.11353 7.67136 7.67146C7.11344 8.22938 6.8 8.98608 6.8 9.7751V24.2251C6.8 25.8673 8.1328 27.2001 9.775 27.2001H15.6519C15.8208 27.794 16.0435 28.3606 16.32 28.9001H9.775C8.53511 28.9001 7.34601 28.4076 6.46927 27.5308C5.59254 26.6541 5.1 25.465 5.1 24.2251V9.7751C5.1 8.53521 5.59254 7.34611 6.46927 6.46937C7.34601 5.59264 8.53511 5.1001 9.775 5.1001ZM16.15 17.0001H19.2729C18.5878 17.4829 17.969 18.0541 17.4369 18.7001H16.15C15.9246 18.7001 15.7084 18.6105 15.549 18.4511C15.3896 18.2917 15.3 18.0755 15.3 17.8501C15.3 17.6247 15.3896 17.4085 15.549 17.2491C15.7084 17.0897 15.9246 17.0001 16.15 17.0001ZM11.475 13.6001C11.8131 13.6001 12.1375 13.4658 12.3766 13.2267C12.6157 12.9876 12.75 12.6632 12.75 12.3251C12.75 11.9869 12.6157 11.6626 12.3766 11.4235C12.1375 11.1844 11.8131 11.0501 11.475 11.0501C11.1368 11.0501 10.8125 11.1844 10.5734 11.4235C10.3343 11.6626 10.2 11.9869 10.2 12.3251C10.2 12.6632 10.3343 12.9876 10.5734 13.2267C10.8125 13.4658 11.1368 13.6001 11.475 13.6001ZM12.75 17.4251C12.75 17.7632 12.6157 18.0875 12.3766 18.3267C12.1375 18.5658 11.8131 18.7001 11.475 18.7001C11.1368 18.7001 10.8125 18.5658 10.5734 18.3267C10.3343 18.0875 10.2 17.7632 10.2 17.4251C10.2 17.0869 10.3343 16.7626 10.5734 16.5235C10.8125 16.2844 11.1368 16.1501 11.475 16.1501C11.8131 16.1501 12.1375 16.2844 12.3766 16.5235C12.6157 16.7626 12.75 17.0869 12.75 17.4251ZM12.75 22.5251C12.75 22.8632 12.6157 23.1875 12.3766 23.4267C12.1375 23.6658 11.8131 23.8001 11.475 23.8001C11.1368 23.8001 10.8125 23.6658 10.5734 23.4267C10.3343 23.1875 10.2 22.8632 10.2 22.5251C10.2 22.1869 10.3343 21.8626 10.5734 21.6235C10.8125 21.3844 11.1368 21.2501 11.475 21.2501C11.8131 21.2501 12.1375 21.3844 12.3766 21.6235C12.6157 21.8626 12.75 22.1869 12.75 22.5251ZM15.3 12.7501C15.3 12.5247 15.3896 12.3085 15.549 12.1491C15.7084 11.9897 15.9246 11.9001 16.15 11.9001H22.95C23.1754 11.9001 23.3916 11.9897 23.551 12.1491C23.7104 12.3085 23.8 12.5247 23.8 12.7501C23.8 12.9755 23.7104 13.1917 23.551 13.3511C23.3916 13.5105 23.1754 13.6001 22.95 13.6001H16.15C15.9246 13.6001 15.7084 13.5105 15.549 13.3511C15.3896 13.1917 15.3 12.9755 15.3 12.7501ZM32.3 24.6501C32.3 26.679 31.494 28.6248 30.0594 30.0595C28.6247 31.4941 26.6789 32.3001 24.65 32.3001C22.6211 32.3001 20.6753 31.4941 19.2406 30.0595C17.806 28.6248 17 26.679 17 24.6501C17 22.6212 17.806 20.6754 19.2406 19.2407C20.6753 17.8061 22.6211 17.0001 24.65 17.0001C26.6789 17.0001 28.6247 17.8061 30.0594 19.2407C31.494 20.6754 32.3 22.6212 32.3 24.6501ZM24.65 20.4001C24.4246 20.4001 24.2084 20.4897 24.049 20.6491C23.8896 20.8085 23.8 21.0247 23.8 21.2501V24.6501C23.8 24.8755 23.8896 25.0917 24.049 25.2511C24.2084 25.4105 24.4246 25.5001 24.65 25.5001H27.2C27.4254 25.5001 27.6416 25.4105 27.801 25.2511C27.9604 25.0917 28.05 24.8755 28.05 24.6501C28.05 24.4247 27.9604 24.2085 27.801 24.0491C27.6416 23.8897 27.4254 23.8001 27.2 23.8001H25.5V21.2501C25.5 21.0247 25.4104 20.8085 25.251 20.6491C25.0916 20.4897 24.8754 20.4001 24.65 20.4001Z" fill="#F5F5F5"/>
</svg>
