<svg width="34" height="34" viewBox="0 0 34 34" fill="none" xmlns="http://www.w3.org/2000/svg">
<path d="M28.421 26.6449V14.5659C28.421 14.3453 28.3697 14.1277 28.271 13.9304C28.1724 13.7331 28.0291 13.5614 27.8526 13.4291L17.9053 5.96854C17.6593 5.78405 17.3601 5.68433 17.0526 5.68433C16.7452 5.68433 16.446 5.78405 16.2 5.96854L6.25263 13.4291C6.07614 13.5614 5.93289 13.7331 5.83423 13.9304C5.73557 14.1277 5.6842 14.3453 5.6842 14.5659V26.6449C5.6842 27.0217 5.83392 27.3832 6.10042 27.6497C6.36692 27.9162 6.72837 28.0659 7.10526 28.0659H12.7895C13.1664 28.0659 13.5278 27.9162 13.7943 27.6497C14.0608 27.3832 14.2105 27.0217 14.2105 26.6449V22.3817C14.2105 22.0048 14.3602 21.6434 14.6267 21.3769C14.8932 21.1104 15.2547 20.9606 15.6316 20.9606H18.4737C18.8506 20.9606 19.212 21.1104 19.4785 21.3769C19.745 21.6434 19.8947 22.0048 19.8947 22.3817V26.6449C19.8947 27.0217 20.0444 27.3832 20.3109 27.6497C20.5774 27.9162 20.9389 28.0659 21.3158 28.0659H27C27.3769 28.0659 27.7383 27.9162 28.0048 27.6497C28.2713 27.3832 28.421 27.0217 28.421 26.6449Z" fill="#F5F5F5" stroke="#F5F5F5" stroke-linecap="round" stroke-linejoin="round"/>
</svg>
