<svg width="36" height="36" viewBox="0 0 36 36" fill="none" xmlns="http://www.w3.org/2000/svg">
<path d="M27 24.024C28.8675 24.8175 30 25.8585 30 27C30 29.4855 24.627 31.5 18 31.5C11.373 31.5 6 29.4855 6 27C6 25.86 7.1325 24.816 9 24.024" stroke="#178B2E" stroke-width="2" stroke-linecap="round" stroke-linejoin="round"/>
<path fill-rule="evenodd" clip-rule="evenodd" d="M19.107 26.5125L19.1145 26.505L19.1325 26.484L19.2 26.409L19.449 26.13C20.6958 24.7108 21.8712 23.2304 22.971 21.6945C23.934 20.3445 24.921 18.8145 25.6725 17.295C26.4075 15.81 27 14.1765 27 12.666C27 7.3065 23.073 3 18 3C12.927 3 9 7.305 9 12.666C9 14.1765 9.5925 15.81 10.3275 17.295C11.079 18.8145 12.0675 20.3445 13.0275 21.6945C14.2008 23.3315 15.4601 24.9053 16.8 26.409L16.8675 26.484L16.8855 26.505L16.893 26.5125C17.0335 26.6662 17.2046 26.789 17.3951 26.8729C17.5857 26.9569 17.7917 27.0003 18 27.0003C18.2083 27.0003 18.4143 26.9569 18.6049 26.8729C18.7954 26.789 18.9665 26.6662 19.107 26.5125ZM18 9C17.2044 9 16.4413 9.31607 15.8787 9.87868C15.3161 10.4413 15 11.2044 15 12C15 12.7956 15.3161 13.5587 15.8787 14.1213C16.4413 14.6839 17.2044 15 18 15C18.7956 15 19.5587 14.6839 20.1213 14.1213C20.6839 13.5587 21 12.7956 21 12C21 11.2044 20.6839 10.4413 20.1213 9.87868C19.5587 9.31607 18.7956 9 18 9Z" fill="#178B2E"/>
</svg>
