<svg width="39" height="39" viewBox="0 0 39 39" fill="none" xmlns="http://www.w3.org/2000/svg">
<path d="M26.6769 3.72852H10.7504C8.99367 3.72852 7.56506 5.15712 7.56506 6.91382V32.3962C7.56506 34.1529 8.99367 35.5815 10.7504 35.5815H26.6769C28.4336 35.5815 29.8622 34.1529 29.8622 32.3962V6.91382C29.8622 5.15712 28.4336 3.72852 26.6769 3.72852ZM10.7504 32.3962V6.91382H26.6769L26.6801 32.3962H10.7504Z" fill="#0D0D0D"/>
<path d="M18.7136 30.804C19.5932 30.804 20.3063 30.0909 20.3063 29.2113C20.3063 28.3317 19.5932 27.6187 18.7136 27.6187C17.834 27.6187 17.121 28.3317 17.121 29.2113C17.121 30.0909 17.834 30.804 18.7136 30.804Z" fill="#0D0D0D"/>
</svg>
