<svg width="15" height="16" viewBox="0 0 15 16" fill="none" xmlns="http://www.w3.org/2000/svg">
<path d="M3.59622 14.2531C3.22326 14.2531 2.86557 14.105 2.60185 13.8412C2.33813 13.5775 2.18997 13.2198 2.18997 12.8469L2.18872 4.09375C2.18872 3.72079 2.33688 3.3631 2.6006 3.09938C2.86432 2.83566 3.22201 2.6875 3.59497 2.6875L4.06185 2.68688L4.06247 2.21875C4.06248 2.10548 4.1035 1.99604 4.17795 1.91067C4.2524 1.8253 4.35525 1.76978 4.46747 1.75438L4.53122 1.75C4.64449 1.75001 4.75393 1.79103 4.8393 1.86548C4.92467 1.93993 4.98019 2.04278 4.9956 2.155L4.99997 2.21875V2.68688H6.87497V2.21875C6.87502 2.10529 6.91621 1.9957 6.99092 1.9103C7.06563 1.8249 7.16877 1.7695 7.28122 1.75438L7.34372 1.75C7.4571 1.74985 7.56669 1.79081 7.65219 1.86527C7.73769 1.93974 7.7933 2.04267 7.80872 2.155L7.8131 2.21875V2.68688H9.68622L9.68685 2.21875C9.68685 2.10548 9.72787 1.99604 9.80233 1.91067C9.87678 1.8253 9.97962 1.76978 10.0918 1.75438L10.1562 1.75C10.2695 1.75001 10.3789 1.79103 10.4643 1.86548C10.5497 1.93993 10.6052 2.04278 10.6206 2.155L10.625 2.21875V2.68688H11.0931C11.4661 2.68688 11.8237 2.83503 12.0875 3.09876C12.3512 3.36248 12.4993 3.72016 12.4993 4.09313L12.5 10.9681C12.5 11.006 12.4958 11.0427 12.4875 11.0781L12.4687 11.1369L12.4406 11.1969L12.4281 11.2169C12.4097 11.2471 12.3876 11.2751 12.3625 11.3L9.54747 14.1156C9.53063 14.1318 9.51289 14.147 9.49435 14.1612L9.54747 14.1156C9.52686 14.1352 9.50493 14.1534 9.48185 14.17L9.42685 14.2025L9.35435 14.2319L9.2831 14.2481L9.24997 14.2519L9.2156 14.2531H3.59622ZM11.0925 3.625H3.58872C3.46549 3.62664 3.34786 3.67675 3.2613 3.76448C3.17474 3.85221 3.12621 3.97051 3.12622 4.09375L3.12747 12.8462C3.12747 13.1056 3.33747 13.315 3.59622 13.315H8.74622L8.74685 11.9062C8.7468 11.5499 8.88203 11.2069 9.1252 10.9464C9.36837 10.6859 9.70135 10.5275 10.0568 10.5031L10.1531 10.5H11.5625V4.09375C11.5625 3.96943 11.5131 3.8502 11.4252 3.76229C11.3373 3.67439 11.218 3.625 11.0937 3.625M10.9 11.4375H10.1543C10.0411 11.4375 9.93163 11.4785 9.84626 11.553C9.7609 11.6274 9.70538 11.7303 9.68997 11.8425L9.6856 11.9062V12.6525L10.9 11.4375ZM4.53122 10.5H7.02997C7.14874 10.5 7.26306 10.5452 7.34984 10.6262C7.43662 10.7073 7.48939 10.8183 7.49749 10.9368C7.50558 11.0553 7.4684 11.1724 7.39345 11.2646C7.3185 11.3567 7.21138 11.4169 7.09372 11.4331L7.02997 11.4375H4.53122C4.41246 11.4375 4.29813 11.3923 4.21135 11.3113C4.12457 11.2302 4.0718 11.1192 4.0637 11.0007C4.05561 10.8822 4.09279 10.7651 4.16774 10.6729C4.24269 10.5808 4.34981 10.5206 4.46747 10.5044L4.53122 10.5ZM4.53122 8H10.155C10.2737 8.00004 10.3881 8.04515 10.4748 8.12623C10.5616 8.20731 10.6144 8.31831 10.6225 8.4368C10.6306 8.55529 10.5934 8.67243 10.5185 8.76456C10.4435 8.85669 10.3364 8.91694 10.2187 8.93313L10.155 8.9375H4.53122C4.41246 8.93746 4.29813 8.89235 4.21135 8.81127C4.12457 8.73019 4.0718 8.61919 4.0637 8.5007C4.05561 8.38221 4.09279 8.26507 4.16774 8.17294C4.24269 8.08081 4.34981 8.02056 4.46747 8.00438L4.53122 8ZM4.53122 5.5H10.155C10.2737 5.50004 10.3881 5.54515 10.4748 5.62623C10.5616 5.70731 10.6144 5.81831 10.6225 5.9368C10.6306 6.05529 10.5934 6.17243 10.5185 6.26456C10.4435 6.35669 10.3364 6.41694 10.2187 6.43313L10.155 6.4375H4.53122C4.41246 6.43746 4.29813 6.39235 4.21135 6.31127C4.12457 6.23019 4.0718 6.11919 4.0637 6.0007C4.05561 5.88221 4.09279 5.76507 4.16774 5.67294C4.24269 5.58081 4.34981 5.52056 4.46747 5.50438L4.53122 5.5Z" fill="#262626"/>
</svg>
