<svg width="63" height="25" viewBox="0 0 63 25" fill="none" xmlns="http://www.w3.org/2000/svg">
<path fill-rule="evenodd" clip-rule="evenodd" d="M13 4.5C13 4.23478 12.8946 3.98043 12.7071 3.79289C12.5196 3.60536 12.2652 3.5 12 3.5C11.7348 3.5 11.4804 3.60536 11.2929 3.79289C11.1054 3.98043 11 4.23478 11 4.5V5.5C9.93913 5.5 8.92172 5.92143 8.17157 6.67157C7.42143 7.42172 7 8.43913 7 9.5C7 10.5609 7.42143 11.5783 8.17157 12.3284C8.92172 13.0786 9.93913 13.5 11 13.5V17.5C10.5863 17.5002 10.1827 17.3721 9.84485 17.1334C9.50699 16.8946 9.25147 16.557 9.1135 16.167C9.02172 15.9215 8.83726 15.7219 8.59981 15.6111C8.36235 15.5002 8.09087 15.487 7.84378 15.5743C7.59668 15.6616 7.39372 15.8424 7.27856 16.0778C7.16341 16.3132 7.14525 16.5844 7.228 16.833C7.50371 17.6131 8.01453 18.2884 8.69007 18.7661C9.36562 19.2437 10.1727 19.5001 11 19.5V20.5C11 20.7652 11.1054 21.0196 11.2929 21.2071C11.4804 21.3946 11.7348 21.5 12 21.5C12.2652 21.5 12.5196 21.3946 12.7071 21.2071C12.8946 21.0196 13 20.7652 13 20.5V19.5C14.0609 19.5 15.0783 19.0786 15.8284 18.3284C16.5786 17.5783 17 16.5609 17 15.5C17 14.4391 16.5786 13.4217 15.8284 12.6716C15.0783 11.9214 14.0609 11.5 13 11.5V7.5C13.4137 7.49979 13.8173 7.62788 14.1551 7.86662C14.493 8.10535 14.7485 8.44299 14.8865 8.833C14.9783 9.07846 15.1627 9.27808 15.4002 9.38892C15.6377 9.49977 15.9091 9.51297 16.1562 9.42569C16.4033 9.33841 16.6063 9.15763 16.7214 8.92223C16.8366 8.68684 16.8548 8.41565 16.772 8.167C16.4963 7.38694 15.9855 6.71157 15.3099 6.23393C14.6344 5.75628 13.8273 5.49987 13 5.5V4.5ZM11 7.5C10.4696 7.5 9.96086 7.71071 9.58579 8.08579C9.21071 8.46086 9 8.96957 9 9.5C9 10.0304 9.21071 10.5391 9.58579 10.9142C9.96086 11.2893 10.4696 11.5 11 11.5V7.5ZM13 13.5V17.5C13.5304 17.5 14.0391 17.2893 14.4142 16.9142C14.7893 16.5391 15 16.0304 15 15.5C15 14.9696 14.7893 14.4609 14.4142 14.0858C14.0391 13.7107 13.5304 13.5 13 13.5Z" fill="#0D0D0D"/>
<path fill-rule="evenodd" clip-rule="evenodd" d="M26 4.5C26 4.23478 25.8946 3.98043 25.7071 3.79289C25.5196 3.60536 25.2652 3.5 25 3.5C24.7348 3.5 24.4804 3.60536 24.2929 3.79289C24.1054 3.98043 24 4.23478 24 4.5V5.5C22.9391 5.5 21.9217 5.92143 21.1716 6.67157C20.4214 7.42172 20 8.43913 20 9.5C20 10.5609 20.4214 11.5783 21.1716 12.3284C21.9217 13.0786 22.9391 13.5 24 13.5V17.5C23.5863 17.5002 23.1827 17.3721 22.8449 17.1334C22.507 16.8946 22.2515 16.557 22.1135 16.167C22.0217 15.9215 21.8373 15.7219 21.5998 15.6111C21.3623 15.5002 21.0909 15.487 20.8438 15.5743C20.5967 15.6616 20.3937 15.8424 20.2786 16.0778C20.1634 16.3132 20.1452 16.5844 20.228 16.833C20.5037 17.6131 21.0145 18.2884 21.6901 18.7661C22.3656 19.2437 23.1727 19.5001 24 19.5V20.5C24 20.7652 24.1054 21.0196 24.2929 21.2071C24.4804 21.3946 24.7348 21.5 25 21.5C25.2652 21.5 25.5196 21.3946 25.7071 21.2071C25.8946 21.0196 26 20.7652 26 20.5V19.5C27.0609 19.5 28.0783 19.0786 28.8284 18.3284C29.5786 17.5783 30 16.5609 30 15.5C30 14.4391 29.5786 13.4217 28.8284 12.6716C28.0783 11.9214 27.0609 11.5 26 11.5V7.5C26.4137 7.49979 26.8173 7.62788 27.1551 7.86662C27.493 8.10535 27.7485 8.44299 27.8865 8.833C27.9783 9.07846 28.1627 9.27808 28.4002 9.38892C28.6377 9.49977 28.9091 9.51297 29.1562 9.42569C29.4033 9.33841 29.6063 9.15763 29.7214 8.92223C29.8366 8.68684 29.8548 8.41565 29.772 8.167C29.4963 7.38694 28.9855 6.71157 28.3099 6.23393C27.6344 5.75628 26.8273 5.49987 26 5.5V4.5ZM24 7.5C23.4696 7.5 22.9609 7.71071 22.5858 8.08579C22.2107 8.46086 22 8.96957 22 9.5C22 10.0304 22.2107 10.5391 22.5858 10.9142C22.9609 11.2893 23.4696 11.5 24 11.5V7.5ZM26 13.5V17.5C26.5304 17.5 27.0391 17.2893 27.4142 16.9142C27.7893 16.5391 28 16.0304 28 15.5C28 14.9696 27.7893 14.4609 27.4142 14.0858C27.0391 13.7107 26.5304 13.5 26 13.5Z" fill="#808080"/>
<path fill-rule="evenodd" clip-rule="evenodd" d="M39 4.5C39 4.23478 38.8946 3.98043 38.7071 3.79289C38.5196 3.60536 38.2652 3.5 38 3.5C37.7348 3.5 37.4804 3.60536 37.2929 3.79289C37.1054 3.98043 37 4.23478 37 4.5V5.5C35.9391 5.5 34.9217 5.92143 34.1716 6.67157C33.4214 7.42172 33 8.43913 33 9.5C33 10.5609 33.4214 11.5783 34.1716 12.3284C34.9217 13.0786 35.9391 13.5 37 13.5V17.5C36.5863 17.5002 36.1827 17.3721 35.8449 17.1334C35.507 16.8946 35.2515 16.557 35.1135 16.167C35.0217 15.9215 34.8373 15.7219 34.5998 15.6111C34.3623 15.5002 34.0909 15.487 33.8438 15.5743C33.5967 15.6616 33.3937 15.8424 33.2786 16.0778C33.1634 16.3132 33.1452 16.5844 33.228 16.833C33.5037 17.6131 34.0145 18.2884 34.6901 18.7661C35.3656 19.2437 36.1727 19.5001 37 19.5V20.5C37 20.7652 37.1054 21.0196 37.2929 21.2071C37.4804 21.3946 37.7348 21.5 38 21.5C38.2652 21.5 38.5196 21.3946 38.7071 21.2071C38.8946 21.0196 39 20.7652 39 20.5V19.5C40.0609 19.5 41.0783 19.0786 41.8284 18.3284C42.5786 17.5783 43 16.5609 43 15.5C43 14.4391 42.5786 13.4217 41.8284 12.6716C41.0783 11.9214 40.0609 11.5 39 11.5V7.5C39.4137 7.49979 39.8173 7.62788 40.1551 7.86662C40.493 8.10535 40.7485 8.44299 40.8865 8.833C40.9783 9.07846 41.1627 9.27808 41.4002 9.38892C41.6377 9.49977 41.9091 9.51297 42.1562 9.42569C42.4033 9.33841 42.6063 9.15763 42.7214 8.92223C42.8366 8.68684 42.8548 8.41565 42.772 8.167C42.4963 7.38694 41.9855 6.71157 41.3099 6.23393C40.6344 5.75628 39.8273 5.49987 39 5.5V4.5ZM37 7.5C36.4696 7.5 35.9609 7.71071 35.5858 8.08579C35.2107 8.46086 35 8.96957 35 9.5C35 10.0304 35.2107 10.5391 35.5858 10.9142C35.9609 11.2893 36.4696 11.5 37 11.5V7.5ZM39 13.5V17.5C39.5304 17.5 40.0391 17.2893 40.4142 16.9142C40.7893 16.5391 41 16.0304 41 15.5C41 14.9696 40.7893 14.4609 40.4142 14.0858C40.0391 13.7107 39.5304 13.5 39 13.5Z" fill="#808080"/>
<path fill-rule="evenodd" clip-rule="evenodd" d="M52 4.5C52 4.23478 51.8946 3.98043 51.7071 3.79289C51.5196 3.60536 51.2652 3.5 51 3.5C50.7348 3.5 50.4804 3.60536 50.2929 3.79289C50.1054 3.98043 50 4.23478 50 4.5V5.5C48.9391 5.5 47.9217 5.92143 47.1716 6.67157C46.4214 7.42172 46 8.43913 46 9.5C46 10.5609 46.4214 11.5783 47.1716 12.3284C47.9217 13.0786 48.9391 13.5 50 13.5V17.5C49.5863 17.5002 49.1827 17.3721 48.8449 17.1334C48.507 16.8946 48.2515 16.557 48.1135 16.167C48.0217 15.9215 47.8373 15.7219 47.5998 15.6111C47.3623 15.5002 47.0909 15.487 46.8438 15.5743C46.5967 15.6616 46.3937 15.8424 46.2786 16.0778C46.1634 16.3132 46.1452 16.5844 46.228 16.833C46.5037 17.6131 47.0145 18.2884 47.6901 18.7661C48.3656 19.2437 49.1727 19.5001 50 19.5V20.5C50 20.7652 50.1054 21.0196 50.2929 21.2071C50.4804 21.3946 50.7348 21.5 51 21.5C51.2652 21.5 51.5196 21.3946 51.7071 21.2071C51.8946 21.0196 52 20.7652 52 20.5V19.5C53.0609 19.5 54.0783 19.0786 54.8284 18.3284C55.5786 17.5783 56 16.5609 56 15.5C56 14.4391 55.5786 13.4217 54.8284 12.6716C54.0783 11.9214 53.0609 11.5 52 11.5V7.5C52.4137 7.49979 52.8173 7.62788 53.1551 7.86662C53.493 8.10535 53.7485 8.44299 53.8865 8.833C53.9783 9.07846 54.1627 9.27808 54.4002 9.38892C54.6377 9.49977 54.9091 9.51297 55.1562 9.42569C55.4033 9.33841 55.6063 9.15763 55.7214 8.92223C55.8366 8.68684 55.8548 8.41565 55.772 8.167C55.4963 7.38694 54.9855 6.71157 54.3099 6.23393C53.6344 5.75628 52.8273 5.49987 52 5.5V4.5ZM50 7.5C49.4696 7.5 48.9609 7.71071 48.5858 8.08579C48.2107 8.46086 48 8.96957 48 9.5C48 10.0304 48.2107 10.5391 48.5858 10.9142C48.9609 11.2893 49.4696 11.5 50 11.5V7.5ZM52 13.5V17.5C52.5304 17.5 53.0391 17.2893 53.4142 16.9142C53.7893 16.5391 54 16.0304 54 15.5C54 14.9696 53.7893 14.4609 53.4142 14.0858C53.0391 13.7107 52.5304 13.5 52 13.5Z" fill="#808080"/>
</svg>
