<svg width="39" height="39" viewBox="0 0 39 39" fill="none" xmlns="http://www.w3.org/2000/svg">
<path d="M6.37061 29.4224C6.37061 27.7328 7.04179 26.1124 8.23651 24.9177C9.43123 23.7229 11.0516 23.0518 12.7412 23.0518H25.4824C27.172 23.0518 28.7924 23.7229 29.9871 24.9177C31.1818 26.1124 31.853 27.7328 31.853 29.4224C31.853 30.2672 31.5174 31.0773 30.9201 31.6747C30.3227 32.2721 29.5125 32.6077 28.6677 32.6077H9.55591C8.71111 32.6077 7.90092 32.2721 7.30356 31.6747C6.7062 31.0773 6.37061 30.2672 6.37061 29.4224Z" stroke="#0D0D0D" stroke-width="2.83333" stroke-linejoin="round"/>
<path d="M19.1118 16.6814C21.7506 16.6814 23.8898 14.5422 23.8898 11.9034C23.8898 9.26465 21.7506 7.12549 19.1118 7.12549C16.473 7.12549 14.3339 9.26465 14.3339 11.9034C14.3339 14.5422 16.473 16.6814 19.1118 16.6814Z" stroke="#0D0D0D" stroke-width="2.83333"/>
</svg>
