<svg width="34" height="34" viewBox="0 0 34 34" fill="none" xmlns="http://www.w3.org/2000/svg">
<g opacity="0.5">
<path d="M28.3333 28.3333L22.5958 22.5958M22.5958 22.5958C23.5167 21.6749 24.2472 20.5817 24.7456 19.3784C25.244 18.1752 25.5005 16.8857 25.5005 15.5833C25.5005 14.281 25.244 12.9914 24.7456 11.7882C24.2472 10.585 23.5167 9.4917 22.5958 8.57081C21.6749 7.64992 20.5817 6.91942 19.3784 6.42104C18.1752 5.92265 16.8857 5.66614 15.5833 5.66614C14.281 5.66614 12.9914 5.92265 11.7882 6.42104C10.585 6.91942 9.49171 7.64992 8.57081 8.57081C6.71098 10.4306 5.66614 12.9531 5.66614 15.5833C5.66614 18.2135 6.71098 20.736 8.57081 22.5958C10.4306 24.4556 12.9531 25.5005 15.5833 25.5005C18.2135 25.5005 20.736 24.4556 22.5958 22.5958Z" stroke="#404040" stroke-width="2" stroke-linecap="round" stroke-linejoin="round"/>
</g>
</svg>
