<svg width="34" height="34" viewBox="0 0 34 34" fill="none" xmlns="http://www.w3.org/2000/svg">
<path d="M28.3333 28.3334L22.5958 22.5959M22.5958 22.5959C23.5167 21.675 24.2472 20.5818 24.7456 19.3786C25.244 18.1754 25.5005 16.8858 25.5005 15.5834C25.5005 14.2811 25.244 12.9915 24.7456 11.7883C24.2472 10.5851 23.5167 9.49183 22.5958 8.57093C21.6749 7.65004 20.5817 6.91954 19.3785 6.42116C18.1753 5.92277 16.8857 5.66626 15.5833 5.66626C14.281 5.66626 12.9914 5.92277 11.7882 6.42116C10.585 6.91954 9.49174 7.65004 8.57084 8.57093C6.71101 10.4308 5.66617 12.9532 5.66617 15.5834C5.66617 18.2136 6.71101 20.7361 8.57084 22.5959C10.4307 24.4558 12.9531 25.5006 15.5833 25.5006C18.2135 25.5006 20.736 24.4558 22.5958 22.5959Z" stroke="#F5F5F5" stroke-width="5" stroke-linecap="round" stroke-linejoin="round"/>
</svg>
