<svg width="12" height="13" viewBox="0 0 12 13" fill="none" xmlns="http://www.w3.org/2000/svg">
<path fill-rule="evenodd" clip-rule="evenodd" d="M6.53573 1.1356C6.48415 1.03093 6.4043 0.942793 6.30522 0.881161C6.20614 0.81953 6.09178 0.786865 5.9751 0.786865C5.85842 0.786865 5.74406 0.81953 5.64498 0.881161C5.5459 0.942793 5.46605 1.03093 5.41448 1.1356L3.90698 4.1906L0.535725 4.6806C0.420236 4.69726 0.31172 4.74593 0.222459 4.82108C0.133198 4.89623 0.0667583 4.99487 0.0306601 5.10584C-0.00543806 5.2168 -0.00975278 5.33565 0.0182044 5.44893C0.0461615 5.56222 0.105274 5.66542 0.18885 5.74685L2.62885 8.12497L2.0526 11.4825C2.03291 11.5974 2.04576 11.7156 2.08971 11.8236C2.13366 11.9316 2.20696 12.0252 2.30131 12.0937C2.39565 12.1622 2.5073 12.203 2.62361 12.2114C2.73992 12.2198 2.85626 12.1955 2.95948 12.1412L5.9751 10.5562L8.99073 12.1412C9.09392 12.1953 9.21019 12.2195 9.3264 12.211C9.4426 12.2025 9.55413 12.1617 9.64837 12.0932C9.74262 12.0247 9.81584 11.9312 9.85977 11.8233C9.9037 11.7154 9.91658 11.5973 9.89698 11.4825L9.32197 8.12497L11.7607 5.74685C11.8443 5.66546 11.9034 5.56231 11.9314 5.44907C11.9594 5.33583 11.9551 5.21702 11.9191 5.10607C11.8831 4.99513 11.8167 4.89648 11.7275 4.82129C11.6384 4.74609 11.5299 4.69736 11.4145 4.6806L8.04323 4.1906L6.53573 1.1356Z" fill="#FFD700"/>
</svg>
