<svg width="14" height="13" viewBox="0 0 14 13" fill="none" xmlns="http://www.w3.org/2000/svg">
<path fill-rule="evenodd" clip-rule="evenodd" d="M7.56326 1.54886C7.51147 1.4481 7.43128 1.36325 7.33178 1.30391C7.23229 1.24458 7.11745 1.21313 7.00027 1.21313C6.8831 1.21313 6.76826 1.24458 6.66876 1.30391C6.56927 1.36325 6.48908 1.4481 6.43729 1.54886L4.92344 4.48992L1.53798 4.96164C1.42201 4.97769 1.31303 5.02454 1.2234 5.09689C1.13376 5.16924 1.06704 5.2642 1.03079 5.37102C0.994539 5.47785 0.990206 5.59226 1.01828 5.70132C1.04636 5.81039 1.10572 5.90974 1.18965 5.98813L3.63993 8.27755L3.06125 11.5098C3.04147 11.6205 3.05438 11.7342 3.09852 11.8382C3.14265 11.9422 3.21626 12.0323 3.311 12.0983C3.40575 12.1642 3.51786 12.2035 3.63466 12.2116C3.75146 12.2197 3.86829 12.1963 3.97194 12.144L7.00027 10.6181L10.0286 12.144C10.1322 12.1961 10.249 12.2194 10.3657 12.2112C10.4824 12.203 10.5944 12.1637 10.689 12.0978C10.7837 12.0318 10.8572 11.9418 10.9013 11.8379C10.9454 11.734 10.9584 11.6204 10.9387 11.5098L10.3612 8.27755L12.8103 5.98813C12.8942 5.90977 12.9536 5.81047 12.9817 5.70146C13.0098 5.59244 13.0055 5.47806 12.9693 5.37125C12.9331 5.26444 12.8665 5.16947 12.7769 5.09709C12.6874 5.0247 12.5785 4.97778 12.4626 4.96164L9.07711 4.48992L7.56326 1.54886Z" stroke="#404040"/>
</svg>
