<svg width="24" height="24" viewBox="0 0 24 24" fill="none" xmlns="http://www.w3.org/2000/svg">
<path fill-rule="evenodd" clip-rule="evenodd" d="M4.718 3.09203C5.944 1.80103 7.972 2.04203 8.986 3.47603L10.246 5.26003C11.057 6.40703 10.989 8.00003 10.021 9.02003L9.776 9.27703L9.774 9.28303C9.761 9.31903 9.729 9.43503 9.761 9.65503C9.828 10.11 10.179 11.036 11.607 12.539C13.039 14.047 13.907 14.402 14.31 14.468C14.4071 14.4901 14.5081 14.4877 14.604 14.461L15.012 14.031C15.886 13.111 17.248 12.93 18.347 13.562L20.257 14.662C21.89 15.602 22.27 17.901 20.965 19.275L19.545 20.77C19.102 21.237 18.497 21.636 17.75 21.71C15.926 21.89 11.701 21.655 7.272 16.991C3.138 12.64 2.353 8.85503 2.254 7.00603C2.205 6.09203 2.612 5.30903 3.148 4.74403L4.718 3.09203ZM7.761 4.34203C7.249 3.61803 6.328 3.57403 5.805 4.12503L4.235 5.77703C3.905 6.12703 3.73 6.52703 3.752 6.92603C3.832 8.43603 4.483 11.878 8.359 15.958C12.423 20.238 16.168 20.358 17.603 20.217C17.886 20.189 18.178 20.031 18.457 19.737L19.877 18.242C20.491 17.596 20.33 16.434 19.509 15.962L17.599 14.862C17.086 14.567 16.485 14.658 16.1 15.064L15.644 15.544L15.117 15.043C15.644 15.543 15.644 15.544 15.643 15.545L15.642 15.546L15.639 15.55L15.632 15.556L15.618 15.57C15.5761 15.6113 15.5305 15.6488 15.482 15.682C15.402 15.738 15.296 15.801 15.161 15.854C14.885 15.963 14.521 16.021 14.07 15.948C13.192 15.806 12.042 15.175 10.52 13.572C8.992 11.964 8.407 10.765 8.277 9.87203C8.21 9.41803 8.263 9.05503 8.361 8.78003C8.41552 8.62684 8.49308 8.48285 8.591 8.35303L8.621 8.31603L8.635 8.30103L8.641 8.29403L8.644 8.29103L8.646 8.29003C8.646 8.29003 8.646 8.28803 9.179 8.79303L8.647 8.28803L8.934 7.98603C9.379 7.51703 9.444 6.72303 9.022 6.12603L7.761 4.34203Z" fill="#0D0D0D"/>
<path d="M13.2599 1.88002C13.2757 1.78276 13.3105 1.68957 13.3624 1.60577C13.4142 1.52197 13.482 1.4492 13.562 1.39162C13.6419 1.33404 13.7324 1.29278 13.8284 1.2702C13.9243 1.24762 14.0237 1.24416 14.1209 1.26002C14.1459 1.26502 14.2279 1.28002 14.2709 1.29002C14.3569 1.30802 14.4743 1.33802 14.6229 1.38002C14.9199 1.46702 15.3349 1.61002 15.8329 1.83802C16.8289 2.29502 18.1539 3.09402 19.5299 4.46902C20.9059 5.84502 21.7049 7.17102 22.1619 8.16702C22.3899 8.66502 22.5319 9.07902 22.6189 9.37702C22.6625 9.52683 22.7002 9.67828 22.7319 9.83102L22.7369 9.86202C22.7699 10.0601 22.7236 10.2631 22.6082 10.4274C22.4928 10.5916 22.3174 10.7039 22.1199 10.74C21.9241 10.7718 21.7237 10.7247 21.5625 10.6091C21.4013 10.4935 21.2925 10.3187 21.2599 10.123C21.2391 10.0126 21.212 9.90342 21.1789 9.79602C21.0767 9.45259 20.9497 9.11705 20.7989 8.79202C20.4089 7.94202 19.7069 6.76802 18.4689 5.53002C17.2309 4.29202 16.0579 3.59102 15.2069 3.20102C14.8822 3.05026 14.547 2.92326 14.2039 2.82102C14.0987 2.79146 13.9926 2.76478 13.8859 2.74102C13.6896 2.70808 13.5141 2.59943 13.397 2.43843C13.28 2.27742 13.2307 2.07692 13.2599 1.88002Z" fill="#0D0D0D"/>
<path fill-rule="evenodd" clip-rule="evenodd" d="M13.486 5.3299C13.513 5.23513 13.5584 5.14661 13.6195 5.06939C13.6807 4.99217 13.7565 4.92776 13.8426 4.87984C13.9287 4.83192 14.0234 4.80143 14.1213 4.79012C14.2191 4.7788 14.3183 4.78688 14.413 4.8139L14.207 5.5349L14.414 4.8149H14.416L14.42 4.8159L14.427 4.8179L14.447 4.8249C14.4623 4.8289 14.4813 4.83523 14.504 4.8439C14.5487 4.85923 14.6077 4.88256 14.681 4.9139C14.826 4.9759 15.025 5.0719 15.27 5.2169C15.76 5.5069 16.427 5.9869 17.212 6.7729C17.997 7.5579 18.479 8.2259 18.768 8.7149C18.913 8.9599 19.009 9.1589 19.072 9.3049C19.1049 9.3813 19.1346 9.45903 19.161 9.5379L19.167 9.5579L19.169 9.5659L19.17 9.5689V9.5709L18.45 9.7779L19.171 9.5719C19.227 9.76285 19.2048 9.96822 19.1093 10.1428C19.0139 10.3174 18.853 10.4469 18.662 10.5029C18.4711 10.5589 18.2657 10.5367 18.0911 10.4412C17.9165 10.3458 17.787 10.1849 17.731 9.9939L17.728 9.9839L17.693 9.8959C17.6292 9.75279 17.5571 9.61355 17.477 9.4789C17.254 9.1029 16.852 8.5329 16.152 7.8329C15.452 7.1329 14.882 6.7309 14.506 6.5079C14.3441 6.41284 14.1757 6.3293 14.002 6.2579L13.992 6.2539C13.8029 6.19731 13.6438 6.06847 13.549 5.89532C13.4543 5.72216 13.4317 5.51964 13.486 5.3299Z" fill="#0D0D0D"/>
</svg>
