<svg width="34" height="34" viewBox="0 0 34 34" fill="none" xmlns="http://www.w3.org/2000/svg">
<path d="M17 18.4167C20.912 18.4167 24.0833 15.2454 24.0833 11.3333C24.0833 7.42132 20.912 4.25 17 4.25C13.088 4.25 9.91666 7.42132 9.91666 11.3333C9.91666 15.2454 13.088 18.4167 17 18.4167Z" fill="#F5F5F5" stroke="#F5F5F5" stroke-width="2" stroke-linecap="round" stroke-linejoin="round"/>
<path d="M28.3333 29.7501C28.3333 26.7443 27.1393 23.8616 25.0139 21.7362C22.8885 19.6108 20.0058 18.4167 17 18.4167C13.9942 18.4167 11.1115 19.6108 8.98612 21.7362C6.86071 23.8616 5.66666 26.7443 5.66666 29.7501" fill="#F5F5F5"/>
<path d="M28.3333 29.7501C28.3333 26.7443 27.1393 23.8616 25.0139 21.7362C22.8885 19.6108 20.0058 18.4167 17 18.4167C13.9942 18.4167 11.1115 19.6108 8.98612 21.7362C6.86071 23.8616 5.66666 26.7443 5.66666 29.7501" stroke="#F5F5F5" stroke-width="2" stroke-linecap="round" stroke-linejoin="round"/>
<path d="M17 18.4167C13.9942 18.4167 11.1115 19.6108 8.98612 21.7362C6.86071 23.8616 5.66666 26.7443 5.66666 29.7501H28.3333C28.3333 26.7443 27.1393 23.8616 25.0139 21.7362C22.8885 19.6108 20.0058 18.4167 17 18.4167Z" fill="#F5F5F5" stroke="#F5F5F5" stroke-width="2" stroke-linecap="round" stroke-linejoin="round"/>
</svg>
