<svg width="23" height="22" viewBox="0 0 23 22" fill="none" xmlns="http://www.w3.org/2000/svg">
<path d="M9.53288 9.03291L9.20838 8.70841M13.7954 13.2954L13.4709 12.9709M9.20838 13.2917L13.7917 8.70841M9.40363 3.33675C9.93622 2.883 10.203 2.65566 10.4816 2.52275C10.7997 2.37099 11.1476 2.29224 11.5 2.29224C11.8525 2.29224 12.2004 2.37099 12.5185 2.52275C12.7971 2.65566 13.0639 2.883 13.5965 3.33675C14.1455 3.80425 14.7029 4.04075 15.4362 4.0985C16.1338 4.15441 16.483 4.18283 16.7745 4.2855C17.4474 4.52383 17.9772 5.05275 18.2146 5.7265C18.3173 6.01708 18.3457 6.36633 18.4016 7.06483C18.4594 7.79816 18.695 8.35458 19.1625 8.90366C19.6171 9.43624 19.8445 9.70299 19.9774 9.98166C20.2854 10.6261 20.2854 11.375 19.9774 12.0185C19.8445 12.2972 19.6171 12.5639 19.1634 13.0965C18.7091 13.6062 18.4407 14.2546 18.4016 14.9362C18.3457 15.6338 18.3173 15.9831 18.2146 16.2746C18.0969 16.6068 17.9065 16.9086 17.6571 17.1577C17.4078 17.4069 17.106 17.5972 16.7736 17.7147C16.483 17.8173 16.1338 17.8457 15.4353 17.9017C14.702 17.9594 14.1455 18.195 13.5965 18.6625C13.0639 19.1172 12.7971 19.3445 12.5185 19.4774C12.2004 19.6292 11.8525 19.7079 11.5 19.7079C11.1476 19.7079 10.7997 19.6292 10.4816 19.4774C10.203 19.3445 9.93622 19.1172 9.40363 18.6634C8.89392 18.2092 8.24552 17.9407 7.56388 17.9017C6.8663 17.8457 6.51705 17.8173 6.22555 17.7147C5.8933 17.597 5.59156 17.4065 5.34239 17.1572C5.09323 16.9079 4.90295 16.606 4.78547 16.2737C4.6828 15.9831 4.65438 15.6338 4.59847 14.9353C4.5595 14.2541 4.29137 13.6061 3.83763 13.0965C3.38297 12.5639 3.15563 12.2972 3.0218 12.0185C2.87019 11.7004 2.79159 11.3524 2.79175 11C2.79191 10.6476 2.87082 10.2997 3.02272 9.98166C3.15563 9.70299 3.38297 9.43624 3.83672 8.90366C4.31338 8.34358 4.54163 7.78258 4.59847 7.06391C4.65438 6.36633 4.6828 6.01708 4.78547 5.72558C4.90316 5.39333 5.09363 5.09159 5.34296 4.84242C5.59228 4.59326 5.89414 4.40298 6.22647 4.2855C6.51705 4.18283 6.8663 4.15441 7.5648 4.0985C8.24601 4.05953 8.89404 3.79048 9.40363 3.33675Z" stroke="#178B2E" stroke-width="1.5" stroke-linecap="round" stroke-linejoin="round"/>
</svg>
