<svg width="20" height="20" viewBox="0 0 20 20" fill="none" xmlns="http://www.w3.org/2000/svg">
<path d="M15.8333 10.0001C15.8333 10.2211 15.7455 10.4331 15.5892 10.5893C15.4329 10.7456 15.221 10.8334 15 10.8334C14.7789 10.8334 14.567 10.7456 14.4107 10.5893C14.2544 10.4331 14.1666 10.2211 14.1666 10.0001C14.1666 9.77907 14.2544 9.56711 14.4107 9.41083C14.567 9.25455 14.7789 9.16675 15 9.16675C15.221 9.16675 15.4329 9.25455 15.5892 9.41083C15.7455 9.56711 15.8333 9.77907 15.8333 10.0001Z" fill="#178B2E"/>
<path fill-rule="evenodd" clip-rule="evenodd" d="M8.28663 2.70825H10.88C12.4116 2.70825 13.625 2.70825 14.5741 2.83575C15.5508 2.96742 16.3416 3.24409 16.9658 3.86742C17.7358 4.63825 17.9816 5.66992 18.0708 7.00909C18.5516 7.21992 18.915 7.66742 18.9541 8.23408C18.9583 8.28492 18.9583 8.33909 18.9583 8.38909V11.6108C18.9583 11.6608 18.9583 11.7149 18.955 11.7649C18.915 12.3316 18.5516 12.7799 18.0708 12.9916C17.9816 14.3299 17.7358 15.3616 16.9658 16.1324C16.3416 16.7558 15.5508 17.0324 14.5741 17.1641C13.6241 17.2916 12.4116 17.2916 10.88 17.2916H8.28663C6.75496 17.2916 5.54163 17.2916 4.59246 17.1641C3.61579 17.0324 2.82496 16.7558 2.20079 16.1324C1.57746 15.5083 1.30079 14.7174 1.16913 13.7408C1.04163 12.7908 1.04163 11.5783 1.04163 10.0466V9.95325C1.04163 8.42159 1.04163 7.20825 1.16913 6.25909C1.30079 5.28242 1.57746 4.49159 2.20079 3.86742C2.82496 3.24409 3.61579 2.96742 4.59246 2.83575C5.54246 2.70825 6.75496 2.70825 8.28663 2.70825ZM16.8066 13.1249H15.1916C13.4041 13.1249 11.8741 11.7683 11.8741 9.99992C11.8741 8.23159 13.4041 6.87492 15.1908 6.87492H16.8058C16.7108 5.75742 16.4966 5.16659 16.0808 4.75159C15.7283 4.39909 15.245 4.18742 14.4066 4.07492C13.5508 3.95992 12.4216 3.95825 10.8325 3.95825H8.33246C6.74329 3.95825 5.61496 3.95992 4.75746 4.07492C3.91996 4.18742 3.43663 4.39909 3.08413 4.75159C2.73163 5.10409 2.52079 5.58742 2.40829 6.42492C2.29329 7.28159 2.29163 8.40992 2.29163 9.99908C2.29163 11.5883 2.29329 12.7174 2.40829 13.5741C2.52079 14.4116 2.73246 14.8949 3.08496 15.2474C3.43746 15.5999 3.92079 15.8116 4.75913 15.9241C5.61579 16.0391 6.74413 16.0408 8.33329 16.0408H10.8333C12.4225 16.0408 13.5516 16.0391 14.4083 15.9241C15.2458 15.8116 15.7291 15.5999 16.0816 15.2474C16.4975 14.8324 16.7116 14.2424 16.8066 13.1241M4.37496 6.66659C4.37496 6.50082 4.44081 6.34185 4.55802 6.22464C4.67523 6.10743 4.8342 6.04159 4.99996 6.04159H8.33329C8.49905 6.04159 8.65802 6.10743 8.77523 6.22464C8.89244 6.34185 8.95829 6.50082 8.95829 6.66659C8.95829 6.83235 8.89244 6.99132 8.77523 7.10853C8.65802 7.22574 8.49905 7.29159 8.33329 7.29159H4.99996C4.8342 7.29159 4.67523 7.22574 4.55802 7.10853C4.44081 6.99132 4.37496 6.83235 4.37496 6.66659ZM17.4366 8.12492H15.1916C14.005 8.12492 13.1241 9.00742 13.1241 9.99992C13.1241 10.9924 14.005 11.8749 15.1908 11.8749H17.4558C17.6275 11.8641 17.7016 11.7483 17.7075 11.6783V8.32159C17.7016 8.25159 17.6275 8.13575 17.4558 8.12575L17.4366 8.12492Z" fill="#178B2E"/>
</svg>
